<?xml version="1.0" encoding="utf-8"?>
<!-- Generator: Adobe Illustrator 16.0.0, SVG Export Plug-In . SVG Version: 6.00 Build 0)  -->
<!DOCTYPE svg PUBLIC "-//W3C//DTD SVG 1.1//EN" "http://www.w3.org/Graphics/SVG/1.1/DTD/svg11.dtd">
<svg version="1.1" id="레이어_1" xmlns="http://www.w3.org/2000/svg" xmlns:xlink="http://www.w3.org/1999/xlink" x="0px"
	 y="0px" width="512px" height="458px" viewBox="0 0 512 458" enable-background="new 0 0 512 458" xml:space="preserve">
<g>
	<path fill="#FFFFFF" d="M92.664,257.727c0,0-81.825,23.154-71.846,73.883c6.202,31.527,53.55,8.445,85.983-40.146
		C139.233,242.869,92.664,257.727,92.664,257.727z"/>
	<path fill="#323333" d="M37.189,352.293c-0.002,0-0.004,0-0.006,0c-11.855-0.002-20.051-7.104-22.485-19.48
		c-4.621-23.486,7.472-45.078,34.971-62.441c19.304-12.189,39.502-18.131,41.208-18.621c0.993-0.307,8.003-2.398,15.042-2.398
		c10.29,0,14.822,4.434,16.812,8.154c4.32,8.076,0.907,19.967-10.742,37.42C89.443,328.703,58.686,352.293,37.189,352.293z
		 M105.918,261.824c-5.427,0-11.301,1.826-11.359,1.844c-0.066,0.021-0.131,0.041-0.198,0.061
		c-0.76,0.215-76.175,22.191-67.424,66.676c1.641,8.344,6.338,9.414,10.248,9.414c0.001,0,0.002,0,0.004,0
		C51.654,339.82,79.147,321.66,101.613,288c12.561-18.82,10.404-24.074,10.117-24.611
		C111.223,262.439,108.941,261.824,105.918,261.824z"/>
</g>
<g>
	<path fill="#FFFFFF" d="M321.427,304.217c0,0,81.824-23.154,71.846-73.881c-6.202-31.529-53.552-8.447-85.983,40.146
		C274.856,319.072,321.427,304.217,321.427,304.217z"/>
	<path fill="#323333" d="M308.173,312.594c0,0-0.001,0-0.003,0c-10.289-0.002-14.82-4.438-16.81-8.156
		c-4.319-8.078-0.905-19.967,10.741-37.418c22.545-33.777,53.305-57.37,74.805-57.37c11.854,0,20.051,7.102,22.485,19.481
		c4.621,23.486-7.473,45.078-34.971,62.441c-19.302,12.189-39.499,18.131-41.207,18.619
		C322.218,310.502,315.211,312.594,308.173,312.594z M376.906,222.125c-14.468,0-41.966,18.161-64.43,51.819
		c-12.561,18.818-10.403,24.074-10.116,24.609c0.509,0.951,2.79,1.566,5.812,1.566h0.001c5.428,0,11.3-1.826,11.357-1.844
		c0.065-0.02,0.132-0.041,0.197-0.061c0.76-0.215,76.176-22.191,67.425-66.676C385.511,223.195,380.814,222.125,376.906,222.125z"/>
</g>
<g>
	<path fill="#FFFFFF" d="M163.436,107.042c0,0-16.858-106.461-66.199-91.881c-35.865,10.597-14.295,56.568,19.188,91.326
		C141.26,132.268,157.337,136.98,163.436,107.042z"/>
	<path fill="#323333" d="M148.053,133.943C148.052,133.943,148.053,133.943,148.053,133.943c-9.571,0-20.711-7.133-36.119-23.127
		C89.261,87.28,67.271,53.671,73.547,29.925c1.867-7.061,7.184-16.391,21.922-20.745c3.655-1.08,7.308-1.627,10.858-1.627
		c20.401,0,37.308,17.031,50.252,50.62c9.117,23.657,12.862,46.915,13.017,47.894c0.116,0.737,0.1,1.489-0.049,2.22
		C166.079,125.31,158.846,133.943,148.053,133.943z M106.327,20.027c-2.354,0-4.817,0.375-7.323,1.116
		c-7.469,2.207-11.851,6.123-13.397,11.97c-4.019,15.204,10.172,42.953,35.31,69.048c15.373,15.958,23.242,19.308,27.136,19.309
		c4.77,0,7.526-7.68,9.04-14.575C152.883,81.66,136.199,20.027,106.327,20.027z"/>
</g>
<g>
	<path fill="#FFFFFF" d="M206.625,117.632c0,0-19.25-106.054,32.137-108.589c37.352-1.844,32.177,48.671,12.053,92.539
		C235.888,134.118,222.269,143.876,206.625,117.632z"/>
	<path fill="#323333" d="M224.325,138.932c-8.253,0-15.795-5.922-23.058-18.105c-0.382-0.642-0.646-1.346-0.779-2.08
		c-0.533-2.936-12.779-72.245,10.909-102.086c6.86-8.641,15.963-13.3,27.057-13.847c12.439-0.619,22.136,3.89,27.955,12.961
		c13.167,20.527,3.506,59.127-9.927,88.407C245.457,128.215,235.539,138.932,224.325,138.932z M212.563,115.396
		c4.353,7.046,8.611,11.061,11.762,11.061c2.47,0,9.443-2.677,20.82-27.476c14.917-32.52,19.244-63.251,10.764-76.471
		c-3.38-5.269-8.896-7.63-16.84-7.239c-7.454,0.368-13.31,3.359-17.902,9.145C204.721,45.134,209.224,96.021,212.563,115.396z"/>
</g>
<g>
	<path fill="#EDD36C" d="M412.436,16.924c-44.411,0-80.413,36.002-80.413,80.413c0,25.88,12.229,48.901,31.221,63.61l0,0
		c0,0-22.339,42.397,16.258,9.769v-0.001c10.053,4.521,21.2,7.036,32.935,7.036c44.412,0,80.413-36.003,80.413-80.414
		C492.849,52.926,456.848,16.924,412.436,16.924z"/>
	<path fill="#EDD36C" d="M359.654,189.292c-3.254,0-6.039-1.521-7.641-4.174c-2.283-3.785-1.839-9.234,1.442-17.666
		c0.674-1.732,1.387-3.383,2.034-4.806c-18.94-16.484-29.704-40.011-29.704-65.311c0-47.778,38.871-86.65,86.649-86.65
		c47.779,0,86.65,38.872,86.65,86.65c0,47.779-38.871,86.649-86.65,86.649c-11.034,0-21.737-2.033-31.87-6.051
		C368.315,187.879,363.113,189.292,359.654,189.292z M412.436,23.161c-40.9,0-74.176,33.275-74.176,74.175
		c0,23.115,10.499,44.502,28.803,58.679c2.395,1.854,3.11,5.159,1.699,7.838c-1.865,3.548-3.561,7.55-4.614,10.698
		c2.468-1.558,6.103-4.182,11.328-8.599c1.832-1.55,4.394-1.909,6.583-0.926c9.573,4.303,19.793,6.486,30.377,6.486
		c40.901,0,74.178-33.276,74.178-74.177C486.613,56.436,453.337,23.161,412.436,23.161z"/>
</g>
<g>
	
		<path fill="#FBFBFB" stroke="#FBFBFB" stroke-width="10" stroke-linecap="round" stroke-linejoin="round" stroke-miterlimit="10" d="
		M408.037,132.913c0.633,0.048,2.027,0.644,4.181,1.782c1.713,0.956,2.75,1.943,3.11,2.956c0.359,1.016,0.302,2.607-0.17,4.778
		c-0.733,3.029-1.804,4.932-3.217,5.712c-1.417,0.78-3.766,0.842-7.048,0.192c-2.603-0.54-4.224-1.172-4.864-1.894
		c-0.643-0.726-1.002-2.273-1.078-4.647c-0.07-3.157,0.785-5.155,2.56-5.989c0.867-0.305,2.019-0.904,3.452-1.795
		C406.376,133.23,407.4,132.867,408.037,132.913z M423.079,44.984c1.626,0.772,3.484,2.287,5.568,4.54
		c0.612,0.551,0.312,4.52-0.9,11.911c-1.214,7.391-2.359,12.235-3.438,14.53c-0.54,1.149-0.8,2.735-0.781,4.763
		c0,4.274-0.177,7.841-0.529,10.707c-0.358,2.191-0.466,3.916-0.322,5.175c0.089,1.59-0.276,3.104-1.098,4.543
		c-0.858,1.658-1.401,3.2-1.634,4.622c-0.161,0.985-0.394,1.68-0.692,2.079c-0.303,0.4-1.102,1-2.4,1.798
		c-1.695,1.072-2.929,1.629-3.694,1.67c-0.77,0.043-2.009-0.413-3.721-1.369c-2.38-1.176-3.842-2.963-4.383-5.357
		c-0.545-2.393-0.375-6.272,0.506-11.638c0.232-1.422,0.521-3.174,0.862-5.255c0.341-2.079,0.521-3.174,0.539-3.284
		c0.191-1.879,0.809-4.927,1.851-9.14c0.669-3.375,0.84-5.484,0.513-6.326c-0.451-1.533-0.119-3.561,0.997-6.076
		c0.854-1.657,1.079-3.027,0.672-4.105c-0.607-2.011-0.388-4.053,0.656-6.133c0.485-0.819,1.033-2.023,1.645-3.61
		c1.204-3.062,2.572-4.638,4.107-4.722C419.561,43.984,421.452,44.211,423.079,44.984z"/>
</g>
<g>
	<path fill="#FFFFFF" d="M331.499,299.316c6.311,65.051-45.021,123.26-114.651,130.014l0,0
		c-69.629,6.754-131.19-40.502-137.501-105.551L68.904,216.137c-6.312-65.051,45.021-123.259,114.65-130.015l0,0
		c69.629-6.754,131.191,40.502,137.501,105.551L331.499,299.316z"/>
	<path fill="#323333" d="M203.613,436.209c-32.597,0-63.837-11.271-87.967-31.74c-24.409-20.707-39.505-49.148-42.507-80.086
		L62.696,216.739c-3.222-33.2,7.566-65.729,30.377-91.596c22.704-25.746,54.623-41.808,89.878-45.228
		c4.595-0.446,9.25-0.672,13.838-0.672c32.597,0,63.837,11.272,87.966,31.741c24.41,20.707,39.506,49.149,42.507,80.087
		l10.443,107.642c6.633,68.369-47.313,129.748-120.256,136.826C212.855,435.984,208.2,436.209,203.613,436.209z M196.79,91.717
		c-4.187,0-8.438,0.207-12.633,0.613c-32.098,3.114-61.122,17.697-81.728,41.063c-20.5,23.247-30.201,52.418-27.317,82.141
		l10.443,107.641c5.562,57.328,56.315,100.561,118.058,100.561c4.187,0,8.437-0.207,12.634-0.613
		c66.095-6.412,115.012-61.682,109.043-123.205l-10.442-107.643C309.286,134.948,258.533,91.717,196.79,91.717z"/>
</g>
<g>
	<path fill="#66BC84" d="M146.098,387.766c0,0-39.348,20.977-31.557,46.947c6.927,23.09,39.78,24.629,61.836-31.557L146.098,387.766
		z"/>
	<path fill="#323333" d="M133.005,456c-0.001,0-0.001,0-0.002,0c-11.466-0.004-20.829-7.473-24.436-19.494
		c-9.154-30.512,32.805-53.291,34.596-54.244c1.797-0.959,3.947-0.979,5.761-0.057l30.28,15.393
		c2.864,1.455,4.154,4.848,2.979,7.838C164.269,451.068,141.826,456,133.005,456z M146.33,394.879
		c-8.037,5.02-30.912,21.053-25.815,38.041c2.021,6.738,6.573,10.604,12.489,10.605c9.488,0,23.496-9.951,35.411-37.42
		L146.33,394.879z"/>
</g>
<g>
	<path fill="#66BC84" d="M275.932,381.766c0,0,42.107,14.674,38.404,41.533c-3.291,23.881-35.518,30.457-65.955-21.666
		L275.932,381.766z"/>
	<path fill="#323333" d="M295.188,447.49c-17.318,0-36.342-15.568-52.192-42.711c-1.62-2.775-0.868-6.326,1.738-8.205l27.552-19.867
		c1.649-1.189,3.778-1.502,5.7-0.832c1.917,0.668,46.881,16.721,42.529,48.275C318.591,438.111,308.412,447.49,295.188,447.49z
		 M256.701,403.322c18.514,29.314,34.008,31.695,38.486,31.695c7.037,0,11.885-4.699,12.971-12.57
		c2.421-17.568-22.641-29.889-31.359-33.617L256.701,403.322z"/>
</g>
<g>
	<ellipse fill="#323333" cx="163.766" cy="194.742" rx="10.949" ry="13.756"/>
</g>
<g>
	<ellipse fill="#323333" cx="248.381" cy="189.127" rx="10.949" ry="13.757"/>
</g>
<g>
	<path fill="#FFFDF8" d="M187.466,222.081c0,0,24.773,22.527,47.193-1.04"/>
	<path fill="#323333" d="M211.902,238.039c-4.057,0-7.8-0.699-11.031-1.664c-10.239-3.059-17.305-9.411-17.601-9.68
		c-2.548-2.316-2.735-6.263-0.418-8.81c2.312-2.543,6.245-2.735,8.795-0.434c0.123,0.109,5.586,4.917,13.147,7.074
		c9.498,2.707,17.787,0.161,25.347-7.784c2.375-2.495,6.322-2.593,8.818-0.22c2.495,2.375,2.594,6.323,0.219,8.818
		C229.918,235.074,220.247,238.039,211.902,238.039z"/>
</g>
<g>
	<path fill="#66BC84" d="M77.064,293.996l-0.471,0.635l2.754,29.148c6.311,65.049,67.873,112.305,137.501,105.551
		c69.629-6.754,120.961-64.963,114.651-130.014l-2.515-25.912h-0.001C214.367,254.037,77.064,293.996,77.064,293.996z"/>
</g>
<g>
	<path fill="#323333" d="M203.613,436.209c-32.597,0-63.837-11.271-87.967-31.74c-24.409-20.707-39.505-49.148-42.507-80.086
		L62.696,216.739c-3.222-33.2,7.566-65.729,30.377-91.596c22.704-25.746,54.623-41.808,89.878-45.228
		c4.595-0.446,9.25-0.672,13.838-0.672c32.597,0,63.837,11.272,87.966,31.741c24.41,20.707,39.506,49.149,42.507,80.087
		l10.443,107.642c6.633,68.369-47.313,129.748-120.256,136.826C212.855,435.984,208.2,436.209,203.613,436.209z M196.79,91.717
		c-4.187,0-8.438,0.207-12.633,0.613c-32.098,3.114-61.122,17.697-81.728,41.063c-20.5,23.247-30.201,52.418-27.317,82.141
		l10.443,107.641c5.562,57.328,56.315,100.561,118.058,100.561c4.187,0,8.437-0.207,12.634-0.613
		c66.095-6.412,115.012-61.682,109.043-123.205l-10.442-107.643C309.286,134.948,258.533,91.717,196.79,91.717z"/>
</g>
<g>
	<line fill="#EDD36C" x1="434.106" y1="243.805" x2="471.167" y2="239.662"/>
	<path fill="#EDD36C" d="M434.1,249.209c-2.716,0-5.056-2.041-5.364-4.805c-0.331-2.967,1.804-5.641,4.771-5.973l37.06-4.143
		c2.962-0.332,5.64,1.805,5.973,4.773c0.33,2.965-1.805,5.639-4.772,5.971l-37.06,4.143
		C434.504,249.199,434.301,249.209,434.1,249.209z"/>
</g>
<g>
	<line fill="#EDD36C" x1="426.833" y1="279.762" x2="447.382" y2="286.156"/>
	<path fill="#EDD36C" d="M447.383,291.564c-0.532,0-1.073-0.08-1.608-0.246l-20.548-6.396c-2.85-0.889-4.441-3.918-3.555-6.768
		c0.887-2.852,3.92-4.443,6.769-3.555l20.547,6.396c2.851,0.887,4.442,3.918,3.556,6.768
		C451.822,290.078,449.687,291.564,447.383,291.564z"/>
</g>
<g>
	<line fill="#EDD36C" x1="400.798" y1="309.875" x2="423.223" y2="336.215"/>
	<path fill="#EDD36C" d="M423.225,341.619c-1.529,0-3.048-0.646-4.118-1.902l-22.425-26.338c-1.936-2.271-1.661-5.684,0.612-7.619
		c2.274-1.936,5.684-1.662,7.62,0.611l22.424,26.338c1.936,2.273,1.662,5.686-0.61,7.621
		C425.71,341.195,424.465,341.619,423.225,341.619z"/>
</g>
</svg>
