<?xml version="1.0" encoding="utf-8"?>
<!-- Generator: Adobe Illustrator 16.0.0, SVG Export Plug-In . SVG Version: 6.00 Build 0)  -->
<!DOCTYPE svg PUBLIC "-//W3C//DTD SVG 1.1//EN" "http://www.w3.org/Graphics/SVG/1.1/DTD/svg11.dtd">
<svg version="1.1" id="레이어_1" xmlns="http://www.w3.org/2000/svg" xmlns:xlink="http://www.w3.org/1999/xlink" x="0px"
	 y="0px" width="479.86px" height="448.112px" viewBox="-37.077 2.565 479.86 448.112"
	 enable-background="new -37.077 2.565 479.86 448.112" xml:space="preserve">
<g>
	<g>
		<g>
			<path fill="#FFFFFF" d="M40.957,254.648c0,0-80.899,22.893-71.033,73.047c6.132,31.172,52.944,8.35,85.01-39.692
				S40.957,254.648,40.957,254.648z"/>
		</g>
		<g>
			<path fill="#323333" d="M-13.891,348.146c-0.002,0-0.002,0-0.005,0c-11.72-0.004-19.823-7.022-22.231-19.262
				c-4.568-23.22,7.388-44.566,34.575-61.734c19.086-12.051,39.056-17.926,40.743-18.409c0.98-0.306,7.912-2.373,14.871-2.373
				c10.174,0,14.653,4.385,16.622,8.063c4.271,7.984,0.896,19.74-10.62,36.995C37.773,324.822,7.363,348.146-13.891,348.146z
				 M54.062,258.701c-5.366,0-11.173,1.805-11.231,1.822c-0.064,0.021-0.13,0.039-0.195,0.06
				c-0.75,0.213-75.313,21.94-66.662,65.922c1.623,8.248,6.267,9.307,10.133,9.308h0.002c14.301,0,41.484-17.953,63.695-51.232
				c12.42-18.605,10.287-23.803,10.003-24.332C59.306,259.307,57.05,258.701,54.062,258.701z"/>
		</g>
	</g>
	<g>
		<g>
			<path fill="#FFFFFF" d="M267.13,300.611c0,0,80.9-22.891,71.033-73.045c-6.133-31.172-52.945-8.351-85.01,39.691
				C221.088,315.301,267.13,300.611,267.13,300.611z"/>
		</g>
		<g>
			<path fill="#323333" d="M254.027,308.894c0,0,0,0-0.002,0c-10.174,0-14.652-4.385-16.619-8.063
				c-4.271-7.985-0.896-19.741,10.619-36.994c22.289-33.396,52.701-56.719,73.957-56.719c11.723,0,19.824,7.02,22.232,19.26
				c4.568,23.222-7.387,44.567-34.574,61.735c-19.084,12.05-39.055,17.924-40.744,18.409
				C267.914,306.827,260.986,308.894,254.027,308.894z M321.982,219.449c-14.303,0-41.488,17.955-63.699,51.234
				c-12.418,18.604-10.287,23.799-10.002,24.33c0.504,0.939,2.758,1.547,5.746,1.547l0,0c5.367,0,11.172-1.805,11.23-1.822
				c0.063-0.021,0.129-0.041,0.195-0.061c0.75-0.213,75.313-21.938,66.659-65.922C330.49,220.508,325.848,219.449,321.982,219.449z"
				/>
		</g>
	</g>
	<g>
		<g>
			<path fill="#FFFFFF" d="M110.929,105.669c0,0-16.667-105.257-65.451-90.842C10.02,25.305,31.344,70.756,64.449,105.121
				C89.002,130.609,104.898,135.269,110.929,105.669z"/>
		</g>
		<g>
			<path fill="#323333" d="M95.719,132.266C95.719,132.266,95.72,132.266,95.719,132.266c-9.463,0-20.477-7.052-35.71-22.867
				C37.593,86.13,15.852,52.902,22.056,29.425c1.846-6.98,7.103-16.206,21.675-20.511c3.612-1.068,7.224-1.609,10.734-1.609
				c20.169,0,36.886,16.839,49.685,50.048c9.013,23.39,12.715,46.385,12.869,47.353c0.115,0.729,0.099,1.473-0.049,2.195
				C113.542,123.73,106.391,132.266,95.719,132.266z M54.465,19.638c-2.326,0-4.763,0.371-7.24,1.104
				c-7.385,2.182-11.718,6.053-13.246,11.835c-3.973,15.032,10.056,42.467,34.911,68.267c15.199,15.778,22.979,19.09,26.828,19.09
				c4.716,0,7.441-7.593,8.938-14.41C100.495,80.573,84,19.638,54.465,19.638z"/>
		</g>
	</g>
	<g>
		<g>
			<path fill="#FFFFFF" d="M153.629,116.14c0,0-19.033-104.854,31.773-107.362c36.928-1.822,31.813,48.122,11.916,91.493
				C182.561,132.438,169.096,142.086,153.629,116.14z"/>
		</g>
		<g>
			<path fill="#323333" d="M171.129,137.198c-8.159,0-15.615-5.855-22.797-17.9c-0.379-0.634-0.639-1.33-0.771-2.056
				c-0.526-2.902-12.636-71.428,10.784-100.931c6.783-8.544,15.783-13.15,26.752-13.691c12.303-0.605,21.885,3.847,27.639,12.815
				c13.02,20.295,3.467,58.459-9.813,87.407C192.021,126.603,182.217,137.198,171.129,137.198z M159.5,113.929
				c4.303,6.966,8.514,10.937,11.629,10.937c2.441,0,9.336-2.647,20.584-27.166c14.75-32.152,19.027-62.536,10.643-75.606
				c-3.34-5.209-8.795-7.542-16.649-7.156c-7.37,0.364-13.159,3.321-17.7,9.041C151.746,44.461,156.198,94.772,159.5,113.929z"/>
		</g>
	</g>
	<g>
		<g>
			<path fill="#FFFFFF" d="M357.111,16.569c-43.908,0-79.504,35.596-79.504,79.503c0,25.588,12.092,48.349,30.867,62.891l0,0
				c0,0-22.086,41.918,16.074,9.66v-0.001c9.938,4.468,20.961,6.956,32.563,6.956c43.91,0,79.504-35.596,79.504-79.504
				C436.615,52.165,401.021,16.569,357.111,16.569z"/>
		</g>
		<g>
			<path fill="#323333" d="M304.927,186.989c-3.219,0-5.973-1.504-7.555-4.128c-2.258-3.741-1.817-9.128,1.426-17.465
				c0.666-1.712,1.371-3.344,2.013-4.751c-18.728-16.298-29.369-39.559-29.369-64.572c0-47.238,38.433-85.669,85.67-85.669
				s85.671,38.431,85.671,85.669c0,47.239-38.434,85.67-85.671,85.67c-10.909,0-21.491-2.011-31.51-5.983
				C313.49,185.591,308.346,186.989,304.927,186.989z M357.111,22.736c-40.438,0-73.336,32.899-73.336,73.336
				c0,22.854,10.379,44,28.477,58.015c2.367,1.833,3.074,5.101,1.681,7.75c-1.847,3.508-3.521,7.463-4.563,10.577
				c2.439-1.541,6.033-4.135,11.199-8.501c1.813-1.532,4.344-1.887,6.508-0.916c9.467,4.255,19.57,6.412,30.035,6.412
				c40.438,0,73.338-32.899,73.338-73.337S397.548,22.736,357.111,22.736z"/>
		</g>
	</g>
	<g>
		<g>
			<path fill="#FFFFFF" d="M277.089,295.768c6.24,64.315-44.511,121.865-113.354,128.545l0,0
				c-68.84,6.677-129.706-40.045-135.945-104.358L17.466,213.528c-6.24-64.314,44.512-121.863,113.353-128.542l0,0
				c68.842-6.678,129.707,40.043,135.945,104.356L277.089,295.768z"/>
		</g>
		<g>
			<path fill="#323333" d="M150.65,431.113c-32.228,0-63.115-11.146-86.972-31.383c-24.133-20.473-39.058-48.594-42.026-79.182
				L11.328,214.124c-3.185-32.824,7.481-64.984,30.034-90.559C63.809,98.11,95.367,82.23,130.223,78.848
				c4.543-0.441,9.146-0.664,13.682-0.664c32.229,0,63.115,11.145,86.973,31.382c24.133,20.472,39.059,48.592,42.025,79.18
				l10.324,106.424c6.56,67.596-46.779,128.281-118.895,135.278C159.789,430.89,155.186,431.113,150.65,431.113z M143.904,90.518
				c-4.139,0-8.342,0.204-12.49,0.606c-31.734,3.079-60.43,17.498-80.803,40.599c-20.268,22.983-29.859,51.825-27.008,81.21
				l10.325,106.426c5.5,56.68,55.679,99.422,116.723,99.422c4.139,0,8.342-0.204,12.491-0.606
				c65.347-6.34,113.712-60.984,107.813-121.812l-10.326-106.424C255.128,133.259,204.949,90.518,143.904,90.518z"/>
		</g>
	</g>
	<g>
		<g>
			<path fill="#66BC84" d="M93.785,383.216c0,0-38.901,20.741-31.198,46.417c6.849,22.829,39.329,24.353,61.137-31.199
				L93.785,383.216z"/>
		</g>
		<g>
			<path fill="#323333" d="M80.842,450.678c-0.001,0-0.002,0-0.002,0c-11.337-0.001-20.594-7.386-24.16-19.272
				c-9.05-30.165,32.434-52.688,34.205-53.63c1.775-0.946,3.902-0.967,5.695-0.057l29.938,15.219
				c2.832,1.438,4.107,4.795,2.946,7.749C111.752,445.804,89.563,450.678,80.842,450.678z M94.016,390.249
				c-7.945,4.963-30.563,20.816-25.523,37.612c2,6.661,6.5,10.481,12.349,10.482c9.38,0,23.23-9.839,35.011-36.995L94.016,390.249z"
				/>
		</g>
	</g>
	<g>
		<g>
			<path fill="#66BC84" d="M222.152,377.284c0,0,41.631,14.509,37.969,41.063c-3.254,23.61-35.115,30.112-65.208-21.422
				L222.152,377.284z"/>
		</g>
		<g>
			<path fill="#323333" d="M241.189,442.267c-17.121,0-35.93-15.393-51.602-42.229c-1.602-2.743-0.857-6.255,1.719-8.111
				l27.238-19.643c1.633-1.178,3.736-1.483,5.637-0.821c1.895,0.659,46.35,16.529,42.049,47.729
				C264.328,432.993,254.264,442.267,241.189,442.267z M203.139,398.598c18.305,28.983,33.623,31.336,38.051,31.336
				c6.957,0,11.75-4.646,12.822-12.427c2.405-17.437-22.375-29.574-30.998-33.241L203.139,398.598z"/>
		</g>
	</g>
	<g>
		<g>
			<ellipse fill="#323333" cx="111.254" cy="192.375" rx="10.825" ry="13.601"/>
		</g>
	</g>
	<g>
		<g>
			<path fill="#313333" d="M159.625,235.782c-8.117,0-14.873-7.205-15.714-16.759c-1.104-12.559,10.52-13.581,14.896-13.967
				c1.016-0.09,2.346-0.191,3.623-0.191c7.331,0,11.389,3.857,12.059,11.466c0.875,9.955-5.271,18.657-13.701,19.399
				C160.398,235.766,160.01,235.782,159.625,235.782z M162.43,213.909c-0.926,0-1.998,0.083-2.83,0.157
				c-6.991,0.615-6.899,1.654-6.679,4.164c0.429,4.867,3.642,8.792,7.075,8.491c3.402-0.3,5.914-4.695,5.482-9.598
				C165.195,213.909,164.773,213.909,162.43,213.909z"/>
		</g>
	</g>
	<g>
		<g>
			<ellipse fill="#323333" cx="194.913" cy="186.826" rx="10.825" ry="13.601"/>
		</g>
	</g>
	<g>
		<g>
			<path fill="#66BC84" d="M25.533,290.507l-0.465,0.629l2.723,28.818c6.239,64.313,67.105,111.035,135.946,104.356
				c68.842-6.679,119.595-64.229,113.354-128.543l-2.484-25.621h-0.002C161.283,251.002,25.533,290.507,25.533,290.507z"/>
		</g>
	</g>
	<g>
		<g>
			<path fill="#323333" d="M150.65,431.113c-32.228,0-63.115-11.146-86.972-31.383c-24.133-20.473-39.058-48.594-42.026-79.182
				L11.328,214.124c-3.185-32.824,7.481-64.984,30.034-90.559C63.809,98.11,95.367,82.23,130.223,78.848
				c4.543-0.441,9.146-0.664,13.682-0.664c32.229,0,63.115,11.145,86.973,31.382c24.133,20.472,39.059,48.592,42.025,79.18
				l10.324,106.424c6.56,67.596-46.779,128.281-118.895,135.278C159.789,430.89,155.186,431.113,150.65,431.113z M143.904,90.518
				c-4.139,0-8.342,0.204-12.49,0.606c-31.734,3.079-60.43,17.498-80.803,40.599c-20.268,22.983-29.859,51.825-27.008,81.21
				l10.325,106.426c5.5,56.68,55.679,99.422,116.723,99.422c4.139,0,8.342-0.204,12.491-0.606
				c65.347-6.34,113.712-60.984,107.813-121.812l-10.326-106.424C255.128,133.259,204.949,90.518,143.904,90.518z"/>
		</g>
	</g>
	<g>
		<g>
			<path fill="#D15342" d="M388.654,54.178c0,0,0.775,0.483,2.326,1.447c1.277,0.703,2.006,1.338,2.189,1.908
				c0.182,0.571,0.09,1.645-0.273,3.224l-0.684,3.29c-0.094,0.526-0.504,1.052-1.232,1.579c-1.277,0.878-2.691,2.127-4.242,3.75
				c-1.551,1.624-2.463,2.828-2.736,3.618c-0.365,0.79-0.912,1.404-1.641,1.842c-0.732,0.527-1.324,1.229-1.779,2.105
				c-0.457,0.878-1.141,1.579-2.053,2.105c-1.914,1.229-4.197,4.167-6.842,8.815c-0.73,1.403-1.641,2.544-2.736,3.42
				c-1.188,0.966-2.008,1.974-2.465,3.026c-0.639,1.405-0.955,2.303-0.955,2.697c0,0.396,0.273,0.943,0.82,1.645
				c0.637,0.789,1.779,2.325,3.42,4.604c1.459,2.194,2.826,3.642,4.105,4.342c1.457,0.79,3.647,3.026,6.567,6.71
				c1.003,1.141,1.916,2.15,2.736,3.026c0.909,0.966,1.594,1.842,2.053,2.631c0.455,0.878,1.048,1.579,1.776,2.105
				c2.281,1.315,4.4,3.443,6.365,6.381c1.959,2.939,2.574,4.934,1.847,5.986c-0.093,0.176-1.007,0.614-2.736,1.315
				c-1.733,0.704-2.827,1.053-3.282,1.053c-0.914,0-1.984-0.306-3.218-0.921c-1.229-0.612-2.168-1.316-2.805-2.105
				c-0.82-1.138-2.235-2.543-4.242-4.209c-2.008-1.665-3.375-3.026-4.104-4.079c-0.73-1.228-1.732-2.455-3.01-3.684
				c-1.189-1.228-2.054-2.369-2.601-3.421c-0.457-0.875-1.05-1.534-1.776-1.973c-0.914-0.526-2.308-1.731-4.177-3.619
				c-1.869-1.884-2.987-3.178-3.353-3.881c-0.912-2.016-2.03-2.763-3.352-2.236c-1.324,0.526-3.582,2.676-6.773,6.447
				c-0.272,0.263-0.684,0.703-1.231,1.316c-0.547,0.614-0.867,1.01-0.957,1.184c-0.642,0.703-1.278,1.493-1.916,2.369
				c-0.547,0.877-1.416,1.887-2.601,3.026c-1.094,1.141-1.643,1.842-1.643,2.105c0,0.263-0.957,1.272-2.873,3.025
				c-1.916,1.842-3.057,3.203-3.42,4.079c-0.639,1.579-2.373,2.939-5.199,4.079c-2.83,1.141-4.791,1.273-5.885,0.394
				c-1.094-0.875-1.758-2.039-1.984-3.486c-0.226-1.447,0.021-2.829,0.754-4.145c0.638-1.052,1.047-1.927,1.23-2.631
				c0.182-0.613,0.957-1.513,2.326-2.697c1.367-1.184,2.371-2.345,3.012-3.486c0.547-1.228,1.32-2.192,2.324-2.894
				c0.912-0.701,1.688-1.623,2.326-2.763c0.549-1.053,1.824-2.5,3.832-4.342c1.916-1.666,3.191-3.027,3.832-4.08
				c0.729-1.051,1.504-1.927,2.324-2.631c1.459-1.402,2.418-3.2,2.875-5.394c0.453-2.191,0.182-3.552-0.822-4.079
				c-0.639-0.263-1.277-1.007-1.914-2.236c-0.641-1.227-1.506-2.323-2.6-3.289c-1.097-1.053-1.871-2.061-2.328-3.026
				c-0.547-0.964-1.322-1.928-2.324-2.895c-1.096-1.139-2.008-2.191-2.738-3.158c-0.912-1.138-1.688-1.973-2.324-2.499
				c-0.641-0.526-1.188-1.447-1.643-2.763c-0.549-1.228-1.279-2.237-2.189-3.026c-1.734-1.315-2.807-3.069-3.217-5.262
				c-0.41-2.192,0.021-3.684,1.301-4.474c1.824-1.227,3.646-1.579,5.473-1.052c1.824,0.526,3.193,1.756,4.105,3.684
				c0.455,0.966,1.275,2.062,2.463,3.289c1.004,1.053,1.688,1.842,2.053,2.369c0.183,0.262,0.729,0.702,1.644,1.315
				c1.095,0.789,2.826,2.457,5.199,5c2.37,2.545,3.829,4.342,4.377,5.394c1.276,2.632,2.578,4.299,3.901,5
				c1.32,0.704,2.482,0.352,3.488-1.053c0.547-0.701,1.414-1.49,2.6-2.367c0.73-0.613,1.8-1.731,3.216-3.356
				c1.414-1.622,2.53-3.046,3.354-4.276c0.362-0.612,1.229-1.579,2.6-2.894c1.184-1.228,1.777-1.929,1.777-2.105
				c0-0.263,0.502-0.92,1.506-1.973c0.91-1.053,1.551-1.929,1.916-2.631c0.363-0.701,1.274-1.754,2.736-3.158
				c1.459-1.315,2.415-2.323,2.872-3.026c0.363-0.612,1.369-1.161,3.011-1.644c1.643-0.481,2.646-0.81,3.01-0.987
				C388.244,54.441,388.654,54.178,388.654,54.178z"/>
			<path fill="#D15342" d="M389.203,140.914c-1.576,0-3.229-0.443-5.053-1.354c-1.754-0.873-3.158-1.951-4.168-3.202
				c-0.047-0.057-0.092-0.117-0.137-0.177c-0.422-0.586-1.377-1.661-3.533-3.454c-2.313-1.918-3.902-3.521-4.857-4.898
				c-0.055-0.078-0.104-0.156-0.152-0.237c-0.538-0.907-1.323-1.858-2.329-2.827c-0.035-0.034-0.07-0.069-0.104-0.104
				c-1.477-1.527-2.553-2.96-3.293-4.382c-0.117-0.224-0.215-0.327-0.25-0.347c-1.203-0.692-2.803-2.055-4.975-4.249
				c-2.051-2.065-3.037-3.252-3.592-4.066c-0.82,0.778-2.051,2.062-3.828,4.159c-0.09,0.107-0.186,0.21-0.287,0.307
				c-0.105,0.102-0.379,0.379-1.016,1.093c-0.322,0.36-0.478,0.547-0.541,0.629c-0.131,0.206-0.277,0.399-0.439,0.579
				c-0.516,0.567-1.039,1.213-1.559,1.92c-0.719,1.116-1.73,2.3-3.086,3.613c-0.375,0.391-0.609,0.655-0.752,0.823
				c-0.535,1.304-1.781,2.496-3.863,4.402c-1.875,1.805-2.377,2.573-2.461,2.715c-1.086,2.623-3.525,4.68-7.438,6.258
				c-2.109,0.851-3.91,1.265-5.5,1.265c-2.191,0-3.652-0.804-4.492-1.477c-1.888-1.509-3.088-3.604-3.474-6.057
				c-0.375-2.366,0.035-4.646,1.222-6.779c0.024-0.045,0.051-0.088,0.076-0.131c0.629-1.04,0.758-1.494,0.77-1.542
				c0.012-0.044,0.025-0.087,0.037-0.13c0.432-1.453,1.5-2.839,3.578-4.635c1.147-0.995,1.742-1.767,2.043-2.268
				c0.832-1.775,2.018-3.222,3.526-4.304c0.437-0.347,0.828-0.828,1.173-1.432c0.799-1.5,2.28-3.22,4.661-5.403
				c0.027-0.026,0.056-0.05,0.082-0.074c2.151-1.871,2.826-2.799,3.017-3.11c0.043-0.071,0.088-0.14,0.135-0.208
				c0.893-1.287,1.875-2.402,2.922-3.317c0.816-0.814,1.352-1.864,1.631-3.205c0.031-0.146,0.055-0.274,0.072-0.387
				c-0.91-0.751-1.715-1.81-2.436-3.199c-0.402-0.775-0.949-1.464-1.668-2.098c-0.046-0.038-0.089-0.079-0.13-0.118
				c-1.413-1.36-2.435-2.69-3.11-4.06c-0.349-0.584-0.867-1.211-1.545-1.866c-0.039-0.035-0.074-0.072-0.111-0.109
				c-1.186-1.234-2.201-2.405-3.016-3.479c-0.941-1.171-1.47-1.667-1.703-1.859c-1.199-0.986-2.129-2.425-2.836-4.388
				c-0.275-0.578-0.603-1.038-0.994-1.397c-2.486-1.934-4.045-4.517-4.639-7.679c-0.972-5.19,1.489-7.654,3.104-8.679
				c2.814-1.872,5.886-2.407,8.851-1.552c2.953,0.852,5.265,2.883,6.681,5.874c0.149,0.317,0.565,1.014,1.701,2.19
				c1.032,1.084,1.756,1.909,2.254,2.575c0.125,0.097,0.36,0.274,0.778,0.554c0.037,0.025,0.076,0.052,0.113,0.079
				c1.336,0.963,3.178,2.72,5.801,5.529c3.494,3.752,4.519,5.338,5.021,6.301c0.018,0.035,0.035,0.069,0.051,0.104
				c0.512,1.054,0.951,1.769,1.295,2.248c0.654-0.673,1.459-1.364,2.43-2.089c0.357-0.313,1.141-1.071,2.682-2.841
				c1.271-1.458,2.275-2.733,2.988-3.792c0.578-0.934,1.563-2.049,3.158-3.586c0.494-0.516,0.795-0.844,0.971-1.044
				c0.449-1.007,1.238-1.907,2.172-2.888c0.906-1.053,1.221-1.585,1.316-1.768c0.588-1.135,1.68-2.44,3.533-4.223
				c0.033-0.03,0.064-0.06,0.096-0.089c1.607-1.449,2.072-2.06,2.166-2.192c1.23-1.96,3.479-2.83,5.311-3.37
				c1.365-0.399,2-0.611,2.273-0.708l0.908-0.584c1.338-0.857,3.051-0.868,4.398-0.027l2.231,1.389
				c1.427,0.795,3.341,2.083,4.019,4.188c0.432,1.362,0.381,2.962-0.17,5.366l-0.666,3.205c-0.302,1.579-1.263,2.964-2.857,4.118
				c-0.027,0.019-0.055,0.038-0.08,0.057c-1.037,0.711-2.248,1.789-3.598,3.2c-1.381,1.445-1.783,2.091-1.861,2.229
				c-0.037,0.094-0.074,0.187-0.117,0.277c-0.68,1.469-1.703,2.647-3.039,3.504c-0.174,0.144-0.324,0.345-0.465,0.61
				c-0.803,1.544-1.99,2.788-3.531,3.704c-0.648,0.439-2.379,1.994-5.4,7.293c-0.989,1.878-2.262,3.445-3.776,4.659
				c-0.847,0.688-1.151,1.205-1.261,1.449c-0.114,0.253-0.209,0.471-0.288,0.657c0.687,0.887,1.729,2.297,3.137,4.253
				c0.029,0.042,0.06,0.084,0.089,0.128c1.51,2.271,2.416,2.88,2.657,3.013c1.992,1.078,4.39,3.451,7.748,7.677
				c0.938,1.069,1.81,2.028,2.58,2.852c1.133,1.201,1.987,2.31,2.608,3.381c0.031,0.055,0.063,0.111,0.092,0.167
				c0.132,0.251,0.273,0.445,0.437,0.586c2.724,1.633,5.236,4.158,7.478,7.511c1.211,1.817,4.396,6.594,1.92,10.441
				c-0.816,1.34-2.148,1.926-4.686,2.955C391.24,140.692,390.146,140.914,389.203,140.914z M386.421,131.245
				c0.175,0.195,0.564,0.543,1.396,0.956c0.588,0.294,0.971,0.412,1.182,0.459c0.275-0.084,0.81-0.265,1.754-0.644
				c-0.201-0.354-0.461-0.781-0.799-1.287c-1.6-2.394-3.279-4.111-4.996-5.101c-0.121-0.07-0.235-0.144-0.35-0.226
				c-1.223-0.881-2.221-2.038-2.967-3.439c-0.217-0.357-0.637-0.949-1.451-1.812c-0.859-0.916-1.809-1.967-2.834-3.133
				c-0.045-0.053-0.092-0.105-0.135-0.16c-3.67-4.631-5.063-5.518-5.303-5.648c-1.894-1.038-3.693-2.871-5.527-5.616
				c-1.947-2.702-2.836-3.865-3.24-4.364c-0.766-0.982-1.732-2.426-1.732-4.227c0-1.096,0.347-2.247,1.326-4.4
				c0.688-1.587,1.91-3.129,3.609-4.511c0.674-0.54,1.217-1.229,1.688-2.132c0.021-0.045,0.047-0.09,0.07-0.134
				c3.049-5.355,5.652-8.61,8.195-10.242c0.053-0.034,0.107-0.067,0.162-0.099c0.293-0.169,0.4-0.321,0.467-0.448
				c0.748-1.443,1.768-2.636,3.02-3.539c0.094-0.067,0.189-0.13,0.289-0.189l0,0c0.543-1.33,1.619-2.785,3.521-4.776
				c1.645-1.722,3.146-3.062,4.576-4.082l0.527-2.532c0.006-0.028,0.014-0.057,0.02-0.085c0.053-0.227,0.094-0.425,0.127-0.597
				c-0.006-0.004-0.014-0.008-0.02-0.012c-0.064-0.034-0.125-0.07-0.187-0.107l-0.271-0.167c-0.563,0.214-1.44,0.5-2.975,0.949
				c-0.512,0.151-0.828,0.276-1.008,0.357c-0.682,0.926-1.721,2.014-3.227,3.375c-1.554,1.497-1.898,2.057-1.912,2.08
				c-0.5,0.961-1.301,2.081-2.438,3.392c-0.043,0.05-0.088,0.101-0.136,0.148c-0.34,0.358-0.555,0.602-0.686,0.755
				c-0.461,1.11-1.393,2.077-2.611,3.34c-0.037,0.037-0.073,0.074-0.11,0.109c-1.558,1.497-1.912,2.028-1.927,2.05
				c-0.036,0.063-0.063,0.103-0.104,0.164c-0.922,1.38-2.123,2.915-3.672,4.693c-1.594,1.829-2.76,3.037-3.67,3.802
				c-0.066,0.055-0.131,0.108-0.199,0.158c-1.119,0.826-1.598,1.337-1.771,1.55c-1.932,2.632-4.266,3.027-5.493,3.027l0,0
				c-1.084,0-2.162-0.28-3.201-0.833c-2.11-1.119-3.959-3.333-5.631-6.762c-0.142-0.255-0.843-1.365-3.724-4.459
				c-2.776-2.976-4.035-4.052-4.551-4.435c-1.406-0.948-2.156-1.608-2.664-2.345c-0.082-0.116-0.455-0.618-1.647-1.87
				c-1.494-1.545-2.552-2.982-3.205-4.372c-0.506-1.067-1.056-1.351-1.524-1.486c-0.554-0.159-1.031-0.067-1.666,0.282
				c0.01,0.135,0.03,0.312,0.071,0.536c0.226,1.198,0.736,2.043,1.66,2.744c0.069,0.054,0.14,0.11,0.207,0.168
				c1.366,1.184,2.461,2.684,3.252,4.458c0.05,0.108,0.093,0.219,0.131,0.331c0.218,0.628,0.394,0.914,0.451,1.001
				c0.849,0.714,1.772,1.706,2.838,3.034c0.024,0.032,0.052,0.064,0.076,0.096c0.614,0.815,1.409,1.733,2.366,2.733
				c1.259,1.221,2.263,2.487,2.988,3.765c0.051,0.091,0.101,0.183,0.146,0.277c0.129,0.277,0.483,0.873,1.399,1.762
				c1.435,1.281,2.597,2.762,3.451,4.405c0.152,0.292,0.268,0.478,0.344,0.586c1.588,0.897,3.879,3.148,2.773,8.467
				c-0.629,3.012-1.99,5.541-4.049,7.521c-0.059,0.055-0.115,0.106-0.176,0.158c-0.533,0.457-1.061,1.052-1.566,1.77
				c-0.885,1.414-2.33,2.97-4.525,4.884c-2.373,2.182-2.875,3.078-2.924,3.174c-0.021,0.038-0.039,0.075-0.063,0.112
				c-0.906,1.623-2.053,2.973-3.404,4.012c-0.049,0.038-0.1,0.075-0.152,0.111c-0.389,0.272-0.682,0.653-0.926,1.199
				c-0.051,0.114-0.107,0.227-0.17,0.336c-0.881,1.574-2.16,3.074-3.906,4.585c-0.688,0.597-1.035,0.964-1.19,1.146
				c-0.306,0.938-0.796,1.966-1.49,3.122c-0.265,0.493-0.34,0.931-0.258,1.454c0.039,0.242,0.099,0.418,0.174,0.558
				c0.388-0.057,1.05-0.213,2.097-0.636c2.494-1.005,2.926-1.806,2.93-1.814c0.623-1.504,1.93-3.14,4.381-5.495
				c0.023-0.023,0.049-0.046,0.072-0.068c1.111-1.019,1.68-1.586,1.959-1.879c0.475-1.036,1.322-1.979,2.365-3.066
				c0.037-0.04,0.076-0.078,0.117-0.116c1.168-1.124,1.711-1.838,1.961-2.239c0.051-0.083,0.106-0.164,0.164-0.243
				c0.643-0.885,1.305-1.71,1.967-2.459c0.26-0.367,0.614-0.797,1.162-1.41c0.557-0.622,0.963-1.058,1.286-1.382
				c4.72-5.556,6.828-6.893,8.269-7.466c0.756-0.301,1.533-0.455,2.313-0.455c1.52,0,4.326,0.609,6.223,4.639
				c0.082,0.115,0.627,0.863,2.605,2.858c2.293,2.317,3.16,2.867,3.311,2.954c1.447,0.871,2.558,2.078,3.367,3.628
				c0.25,0.482,0.773,1.283,1.865,2.421c1.459,1.411,2.648,2.867,3.541,4.332c0.297,0.403,1.137,1.385,3.291,3.172
				C383.794,128.258,385.386,129.843,386.421,131.245z"/>
		</g>
	</g>
	<g>
		<g>
			<path fill="#313333" d="M56.857,266.549c-1.553,0-3.132-0.412-4.586-1.242c-5.972-3.404-3.038-15.3-1.5-20.256
				c0.539-1.734,2.381-2.703,4.116-2.164c1.734,0.537,2.704,2.379,2.167,4.112l0,0c-1.614,5.22-2.286,11.288-1.416,12.653
				c0.838,0.439,1.651,0.438,2.301-0.008c0.771-0.528,1.124-1.549,0.945-2.729c-0.271-1.797,0.965-3.473,2.762-3.744
				c1.793-0.268,3.471,0.965,3.742,2.762c0.557,3.678-0.873,7.178-3.729,9.137C60.225,266.055,58.557,266.549,56.857,266.549z"/>
		</g>
	</g>
</g>
</svg>
