<?xml version="1.0" encoding="utf-8"?>
<!-- Generator: Adobe Illustrator 16.0.0, SVG Export Plug-In . SVG Version: 6.00 Build 0)  -->
<!DOCTYPE svg PUBLIC "-//W3C//DTD SVG 1.1//EN" "http://www.w3.org/Graphics/SVG/1.1/DTD/svg11.dtd">
<svg version="1.1" id="레이어_1" xmlns="http://www.w3.org/2000/svg" xmlns:xlink="http://www.w3.org/1999/xlink" x="0px"
	 y="0px" width="479.858px" height="448.112px" viewBox="-12.18 2.565 479.858 448.112"
	 enable-background="new -12.18 2.565 479.858 448.112" xml:space="preserve">
<g>
	<g>
		<g>
			<path fill="#FFFFFF" d="M65.853,254.648c0,0-80.899,22.893-71.033,73.047c6.133,31.172,52.945,8.35,85.011-39.692
				C111.896,239.961,65.853,254.648,65.853,254.648z"/>
		</g>
		<g>
			<path fill="#323333" d="M11.006,348.146c-0.002,0-0.003,0-0.006,0c-11.721-0.004-19.824-7.022-22.23-19.262
				c-4.567-23.22,7.389-44.566,34.575-61.734C42.43,255.1,62.4,249.225,64.087,248.741c0.979-0.306,7.911-2.373,14.871-2.373
				c10.173,0,14.653,4.385,16.621,8.063c4.271,7.984,0.896,19.74-10.62,36.995C62.67,324.822,32.257,348.146,11.006,348.146z
				 M78.958,258.701c-5.367,0-11.173,1.805-11.231,1.822c-0.064,0.021-0.131,0.039-0.194,0.06
				c-0.752,0.213-75.314,21.94-66.661,65.922c1.621,8.248,6.266,9.307,10.132,9.308c0.001,0,0.002,0,0.003,0
				c14.301,0,41.483-17.953,63.694-51.232c12.421-18.605,10.288-23.803,10.003-24.332C84.201,259.307,81.946,258.701,78.958,258.701
				z"/>
		</g>
	</g>
	<g>
		<g>
			<path fill="#FFFFFF" d="M292.028,300.611c0,0,80.897-22.891,71.033-73.045c-6.133-31.172-52.945-8.351-85.012,39.691
				C245.984,315.3,292.028,300.611,292.028,300.611z"/>
		</g>
		<g>
			<path fill="#323333" d="M278.924,308.894c-0.001,0-0.002,0-0.004,0c-10.172,0-14.651-4.385-16.618-8.063
				c-4.271-7.985-0.896-19.741,10.618-36.994c22.291-33.396,52.701-56.719,73.958-56.719c11.724,0,19.823,7.02,22.231,19.26
				c4.568,23.222-7.388,44.567-34.574,61.735c-19.084,12.05-39.055,17.924-40.743,18.409
				C292.811,306.827,285.883,308.894,278.924,308.894z M346.879,219.449c-14.305,0-41.488,17.955-63.7,51.234
				c-12.418,18.604-10.284,23.799-10.002,24.33c0.503,0.939,2.757,1.547,5.746,1.547h0.002c5.366,0,11.171-1.805,11.229-1.822
				c0.063-0.021,0.129-0.041,0.194-0.061c0.75-0.213,75.313-21.938,66.662-65.922C355.386,220.508,350.743,219.449,346.879,219.449z
				"/>
		</g>
	</g>
	<g>
		<g>
			<path fill="#FFFFFF" d="M135.825,105.669c0,0-16.668-105.257-65.451-90.842C34.916,25.304,56.24,70.755,89.346,105.12
				C113.898,130.609,129.795,135.269,135.825,105.669z"/>
		</g>
		<g>
			<path fill="#323333" d="M120.615,132.266C120.614,132.266,120.615,132.266,120.615,132.266c-9.463,0-20.477-7.052-35.711-22.867
				C62.488,86.13,40.749,52.902,46.952,29.425c1.845-6.98,7.103-16.206,21.674-20.511c3.614-1.068,7.226-1.609,10.735-1.609
				c20.17,0,36.887,16.839,49.685,50.048c9.015,23.39,12.715,46.385,12.87,47.353c0.114,0.729,0.098,1.473-0.049,2.195
				C138.438,123.73,131.286,132.266,120.615,132.266z M79.361,19.638c-2.326,0-4.762,0.371-7.239,1.104
				c-7.386,2.182-11.718,6.053-13.246,11.835c-3.974,15.032,10.057,42.467,34.911,68.267c15.199,15.778,22.978,19.09,26.828,19.09
				c4.716,0,7.442-7.593,8.937-14.41C125.391,80.573,108.896,19.638,79.361,19.638z"/>
		</g>
	</g>
	<g>
		<g>
			<path fill="#FFFFFF" d="M178.525,116.14c0,0-19.034-104.854,31.772-107.362c36.929-1.822,31.813,48.122,11.916,91.493
				C207.456,132.438,193.992,142.086,178.525,116.14z"/>
		</g>
		<g>
			<path fill="#323333" d="M196.024,137.198c-8.159,0-15.615-5.855-22.797-17.9c-0.377-0.634-0.638-1.33-0.771-2.056
				c-0.526-2.902-12.635-71.428,10.785-100.931c6.782-8.544,15.783-13.15,26.752-13.691c12.304-0.605,21.886,3.847,27.639,12.815
				c13.018,20.295,3.466,58.459-9.813,87.407C216.919,126.603,207.113,137.198,196.024,137.198z M184.396,113.929
				c4.305,6.966,8.514,10.937,11.629,10.937c2.442,0,9.336-2.647,20.585-27.166c14.75-32.152,19.026-62.536,10.643-75.606
				c-3.342-5.209-8.794-7.542-16.649-7.156c-7.369,0.364-13.16,3.321-17.7,9.041C176.641,44.461,181.095,94.772,184.396,113.929z"/>
		</g>
	</g>
	<g>
		<g>
			<path fill="#EDD36C" d="M382.008,16.569c-43.91,0-79.505,35.596-79.505,79.503c0,25.588,12.09,48.349,30.868,62.891l0,0
				c0,0-22.086,41.918,16.072,9.66v-0.001c9.938,4.468,20.961,6.956,32.563,6.956c43.907,0,79.503-35.596,79.503-79.504
				C461.512,52.165,425.917,16.569,382.008,16.569z"/>
		</g>
		<g>
			<path fill="#EDD36C" d="M329.823,186.989c-3.217,0-5.971-1.504-7.553-4.128c-2.259-3.741-1.818-9.128,1.424-17.465
				c0.666-1.712,1.373-3.344,2.012-4.751c-18.727-16.298-29.367-39.559-29.367-64.572c0-47.238,38.432-85.669,85.671-85.669
				c47.237,0,85.669,38.431,85.669,85.669c0,47.239-38.432,85.67-85.669,85.67c-10.912,0-21.493-2.011-31.513-5.983
				C338.385,185.591,333.243,186.989,329.823,186.989z M382.008,22.736c-40.439,0-73.338,32.899-73.338,73.336
				c0,22.854,10.379,44,28.479,58.015c2.364,1.833,3.074,5.101,1.68,7.75c-1.846,3.508-3.521,7.463-4.563,10.577
				c2.438-1.541,6.032-4.135,11.198-8.501c1.813-1.532,4.345-1.887,6.508-0.916c9.468,4.255,19.57,6.412,30.036,6.412
				c40.438,0,73.336-32.899,73.336-73.337S422.446,22.736,382.008,22.736z"/>
		</g>
	</g>
	<g>
		<g>
			<path fill="#FBFBFB" d="M377.659,131.247c0.627,0.048,2.004,0.638,4.134,1.761c1.692,0.946,2.719,1.923,3.075,2.923
				c0.354,1.005,0.297,2.58-0.168,4.725c-0.725,2.995-1.783,4.877-3.182,5.648c-1.4,0.771-3.723,0.833-6.969,0.191
				c-2.572-0.535-4.175-1.159-4.809-1.873c-0.637-0.718-0.991-2.248-1.066-4.594c-0.068-3.123,0.775-5.097,2.531-5.921
				c0.855-0.302,1.996-0.895,3.412-1.774C376.015,131.561,377.03,131.202,377.659,131.247z M392.532,44.313
				c1.606,0.765,3.442,2.261,5.504,4.488c0.607,0.546,0.309,4.469-0.891,11.775c-1.199,7.309-2.332,12.097-3.398,14.366
				c-0.533,1.137-0.789,2.706-0.771,4.71c0.002,4.225-0.175,7.753-0.523,10.585c-0.354,2.167-0.461,3.87-0.317,5.117
				c0.088,1.572-0.272,3.068-1.085,4.491c-0.848,1.64-1.387,3.164-1.615,4.57c-0.16,0.973-0.389,1.661-0.686,2.056
				c-0.299,0.395-1.09,0.987-2.373,1.777c-1.678,1.059-2.896,1.609-3.652,1.651c-0.761,0.043-1.986-0.408-3.679-1.353
				c-2.354-1.163-3.8-2.929-4.334-5.297c-0.539-2.365-0.37-6.202,0.5-11.505c0.229-1.407,0.517-3.14,0.854-5.197
				c0.338-2.055,0.514-3.138,0.532-3.247c0.188-1.858,0.8-4.872,1.83-9.038c0.66-3.335,0.83-5.421,0.507-6.253
				c-0.445-1.516-0.117-3.521,0.984-6.007c0.845-1.639,1.068-2.994,0.665-4.06c-0.601-1.988-0.384-4.006,0.647-6.064
				c0.48-0.809,1.021-1.999,1.627-3.568c1.19-3.027,2.543-4.584,4.062-4.668C389.051,43.325,390.922,43.548,392.532,44.313z"/>
			<path fill="#FBFBFB" d="M378.407,151.043c-1.375,0-2.897-0.169-4.655-0.516c-3.675-0.765-5.782-1.711-7.083-3.175
				c-1.344-1.518-1.991-3.734-2.102-7.193c-0.136-6.124,2.586-8.691,4.893-9.774c0.123-0.059,0.251-0.111,0.381-0.156
				c0.32-0.113,1.088-0.444,2.611-1.39c0.061-0.037,0.121-0.073,0.183-0.106c2.007-1.107,3.522-1.601,4.916-1.601
				c0.14,0,0.272,0.005,0.403,0.014c1.121,0.086,2.464,0.488,5.758,2.227c0.029,0.015,0.059,0.031,0.085,0.047
				c2.616,1.461,4.233,3.14,4.942,5.131c0.633,1.789,0.623,4.001-0.021,6.977c-0.007,0.032-0.014,0.063-0.021,0.095
				c-1.019,4.206-2.717,6.915-5.19,8.28C382.11,150.671,380.442,151.043,378.407,151.043z M372.962,141.814
				c0.415,0.158,1.163,0.393,2.424,0.655c1.171,0.231,2.2,0.354,3.021,0.354c0.637,0,0.965-0.074,1.092-0.111
				c0.146-0.166,0.682-0.882,1.193-2.975c0.28-1.308,0.305-2.009,0.293-2.321c-0.164-0.151-0.506-0.428-1.158-0.795
				c-1.187-0.625-1.912-0.96-2.33-1.138c-0.192,0.085-0.457,0.213-0.807,0.403c-1.422,0.876-2.619,1.509-3.646,1.92
				c-0.091,0.207-0.289,0.815-0.261,2.132C372.815,140.862,372.893,141.457,372.962,141.814z M382.62,114.014
				c-1.518,0-3.215-0.565-5.496-1.831c-3.404-1.713-5.623-4.487-6.424-8.028c-0.67-2.944-0.527-7.103,0.453-13.077l1.021-6.225
				c0.184-1.119,0.299-1.82,0.346-2.104c0.223-2.057,0.842-5.127,1.893-9.379c0.554-2.815,0.578-3.91,0.568-4.227
				c-0.726-2.498-0.341-5.379,1.178-8.808c0.033-0.074,0.068-0.147,0.106-0.219c0.265-0.516,0.356-0.83,0.388-0.973
				c-0.002-0.004-0.004-0.008-0.004-0.012c-0.912-3.015-0.605-6.075,0.908-9.095c0.043-0.087,0.09-0.172,0.139-0.256
				c0.246-0.415,0.678-1.264,1.326-2.949c1.795-4.564,4.297-7.003,7.449-7.279c2.885-0.401,5.523-0.046,7.824,1.046
				c2.076,0.987,4.255,2.721,6.656,5.301c1.847,1.779,2.074,4.216,0.25,15.342c-1.694,10.331-2.943,13.764-3.733,15.449
				c-0.12,0.254-0.399,1.056-0.382,2.925c0,4.395-0.186,8.125-0.555,11.123c-0.006,0.055-0.014,0.11-0.023,0.165
				c-0.383,2.333-0.348,3.498-0.291,3.984c0.01,0.078,0.016,0.156,0.021,0.235c0.131,2.338-0.397,4.583-1.571,6.675
				c-0.624,1.217-1.021,2.321-1.177,3.282c-0.276,1.675-0.736,2.898-1.449,3.853c-0.662,0.876-1.676,1.687-3.512,2.817
				c-2.355,1.487-4.037,2.168-5.58,2.254C382.847,114.01,382.735,114.014,382.62,114.014z M382.868,66.812
				c0.463,1.406,0.537,3.465-0.408,8.25c-0.014,0.063-0.027,0.126-0.043,0.189c-1.221,4.931-1.615,7.326-1.73,8.465
				c-0.01,0.09-0.021,0.181-0.037,0.271c-0.016,0.094-0.137,0.827-0.361,2.198l-1.02,6.225c-1.023,6.239-0.783,8.899-0.551,9.928
				c0.188,0.818,0.584,1.751,2.146,2.524c0.063,0.03,0.125,0.063,0.185,0.097c0.729,0.407,1.208,0.623,1.496,0.737
				c0.304-0.14,0.827-0.412,1.636-0.922c0.555-0.341,0.918-0.586,1.146-0.749c0.016-0.077,0.033-0.168,0.049-0.275
				c0.301-1.831,0.982-3.782,2.023-5.793c0.023-0.049,0.051-0.098,0.078-0.146c0.405-0.709,0.582-1.392,0.555-2.139
				c-0.162-1.598-0.047-3.567,0.351-6.015c0.321-2.654,0.483-6.019,0.481-10.004c-0.022-2.616,0.357-4.739,1.162-6.456
				c0.508-1.081,1.578-4.24,3.063-13.286c0.914-5.569,1.115-8.07,1.143-9.144c-1.668-1.685-2.789-2.421-3.463-2.742
				c-0.806-0.382-1.783-0.495-2.982-0.352c-0.211,0.274-0.61,0.894-1.102,2.143c-0.652,1.692-1.254,3.014-1.828,4.01
				c-0.635,1.319-0.539,2.208-0.361,2.842c0.738,2.12,0.449,4.506-0.86,7.097C382.768,65.75,382.838,66.625,382.868,66.812z"/>
		</g>
	</g>
	<g>
		<g>
			<path fill="#FFFFFF" d="M301.987,295.768c6.238,64.315-44.514,121.865-113.354,128.545l0,0
				c-68.841,6.678-129.707-40.045-135.946-104.357L42.361,213.528c-6.24-64.314,44.513-121.863,113.354-128.542l0,0
				c68.84-6.678,129.707,40.043,135.945,104.356L301.987,295.768z"/>
		</g>
		<g>
			<path fill="#323333" d="M175.547,431.113c-32.228,0-63.114-11.146-86.973-31.383c-24.133-20.473-39.058-48.594-42.025-79.182
				L36.223,214.124c-3.185-32.824,7.481-64.984,30.034-90.559c22.447-25.455,54.005-41.335,88.86-44.717
				c4.544-0.441,9.147-0.664,13.682-0.664c32.229,0,63.116,11.145,86.974,31.382c24.132,20.472,39.058,48.592,42.024,79.18
				l10.324,106.424c6.558,67.596-46.777,128.281-118.894,135.278C184.686,430.89,180.081,431.113,175.547,431.113z M168.799,90.518
				c-4.139,0-8.342,0.204-12.489,0.606c-31.734,3.079-60.431,17.498-80.804,40.599c-20.268,22.983-29.858,51.825-27.007,81.21
				l10.323,106.426c5.5,56.68,55.679,99.422,116.724,99.422c4.139,0,8.342-0.204,12.49-0.606
				c65.349-6.34,113.712-60.984,107.811-121.812l-10.323-106.424C280.026,133.259,229.844,90.518,168.799,90.518z"/>
		</g>
	</g>
	<g>
		<g>
			<path fill="#66BC84" d="M118.682,383.216c0,0-38.903,20.741-31.199,46.417c6.847,22.829,39.329,24.353,61.137-31.199
				L118.682,383.216z"/>
		</g>
		<g>
			<path fill="#323333" d="M105.738,450.678c-0.002,0-0.002,0-0.003,0c-11.337-0.001-20.594-7.386-24.159-19.272
				c-9.051-30.165,32.434-52.688,34.204-53.63c1.776-0.946,3.903-0.967,5.695-0.057l29.938,15.219
				c2.831,1.438,4.106,4.795,2.945,7.749C136.647,445.804,114.459,450.678,105.738,450.678z M118.911,390.249
				c-7.945,4.963-30.561,20.816-25.521,37.612c1.998,6.661,6.498,10.481,12.347,10.482c9.381,0,23.231-9.839,35.01-36.995
				L118.911,390.249z"/>
		</g>
	</g>
	<g>
		<g>
			<path fill="#66BC84" d="M247.049,377.284c0,0,41.631,14.509,37.969,41.063c-3.254,23.61-35.114,30.112-65.208-21.422
				L247.049,377.284z"/>
		</g>
		<g>
			<path fill="#323333" d="M266.086,442.267c-17.122,0-35.932-15.393-51.602-42.229c-1.603-2.743-0.858-6.255,1.718-8.111
				l27.241-19.643c1.631-1.178,3.735-1.483,5.635-0.821c1.896,0.659,46.351,16.529,42.049,47.729
				C289.224,432.993,279.161,442.267,266.086,442.267z M228.035,398.598c18.304,28.983,33.623,31.336,38.051,31.336
				c6.957,0,11.75-4.646,12.822-12.427c2.404-17.437-22.376-29.574-30.999-33.241L228.035,398.598z"/>
		</g>
	</g>
	<g>
		<g>
			<ellipse fill="#323333" cx="136.15" cy="192.375" rx="10.825" ry="13.601"/>
		</g>
	</g>
	<g>
		<g>
			<ellipse fill="#323333" cx="219.808" cy="186.826" rx="10.825" ry="13.601"/>
		</g>
	</g>
	<g>
		<g>
			<path fill="#FFFDF8" d="M159.583,219.406c0,0,24.492,22.271,46.659-1.027"/>
		</g>
		<g>
			<path fill="#323333" d="M183.74,235.184c-4.009,0-7.709-0.691-10.904-1.646c-10.123-3.022-17.109-9.304-17.4-9.57
				c-2.521-2.29-2.706-6.19-0.415-8.711c2.285-2.514,6.174-2.705,8.695-0.427c0.122,0.107,5.522,4.859,12.999,6.992
				c9.389,2.678,17.587,0.161,25.061-7.694c2.347-2.466,6.251-2.563,8.718-0.217c2.467,2.346,2.564,6.25,0.216,8.718
				C201.554,232.251,191.993,235.184,183.74,235.184z"/>
		</g>
	</g>
	<g>
		<g>
			<path fill="#66BC84" d="M50.429,290.507l-0.466,0.629l2.723,28.818c6.239,64.313,67.105,111.035,135.946,104.356
				s119.593-64.229,113.354-128.543l-2.486-25.621l0,0C186.179,251.002,50.429,290.507,50.429,290.507z"/>
		</g>
	</g>
	<g>
		<g>
			<path fill="#323333" d="M175.547,431.113c-32.228,0-63.114-11.146-86.973-31.383c-24.133-20.473-39.058-48.594-42.025-79.182
				L36.223,214.124c-3.185-32.824,7.481-64.984,30.034-90.559c22.447-25.455,54.005-41.335,88.86-44.717
				c4.544-0.441,9.147-0.664,13.682-0.664c32.229,0,63.116,11.145,86.974,31.382c24.132,20.472,39.058,48.592,42.024,79.18
				l10.324,106.424c6.558,67.596-46.777,128.281-118.894,135.278C184.686,430.89,180.081,431.113,175.547,431.113z M168.799,90.518
				c-4.139,0-8.342,0.204-12.489,0.606c-31.734,3.079-60.431,17.498-80.804,40.599c-20.268,22.983-29.858,51.825-27.007,81.21
				l10.323,106.426c5.5,56.68,55.679,99.422,116.724,99.422c4.139,0,8.342-0.204,12.49-0.606
				c65.349-6.34,113.712-60.984,107.811-121.812l-10.323-106.424C280.026,133.259,229.844,90.518,168.799,90.518z"/>
		</g>
	</g>
	<g>
		<g>
			<line fill="none" x1="403.434" y1="240.884" x2="440.075" y2="236.788"/>
		</g>
		<g>
			<path fill="#EDD36C" d="M403.426,246.229c-2.688,0-5-2.02-5.305-4.75c-0.327-2.935,1.783-5.578,4.718-5.905l36.642-4.097
				c2.932-0.32,5.576,1.784,5.904,4.719c0.326,2.933-1.783,5.576-4.719,5.904l-36.641,4.096
				C403.827,246.218,403.625,246.229,403.426,246.229z"/>
		</g>
	</g>
	<g>
		<g>
			<line fill="none" x1="396.243" y1="276.434" x2="416.559" y2="282.758"/>
		</g>
		<g>
			<path fill="#EDD36C" d="M416.559,288.104c-0.525,0-1.061-0.078-1.591-0.242l-20.315-6.325c-2.817-0.877-4.392-3.873-3.514-6.69
				c0.876-2.818,3.872-4.394,6.691-3.514l20.314,6.324c2.818,0.877,4.393,3.873,3.514,6.689
				C420.948,286.636,418.837,288.104,416.559,288.104z"/>
		</g>
	</g>
	<g>
		<g>
			<line fill="none" x1="370.502" y1="306.207" x2="392.672" y2="332.248"/>
		</g>
		<g>
			<path fill="#EDD36C" d="M392.674,337.592c-1.514,0-3.016-0.638-4.072-1.88l-22.17-26.04c-1.914-2.248-1.645-5.621,0.604-7.533
				c2.248-1.914,5.621-1.643,7.535,0.604l22.172,26.041c1.914,2.248,1.643,5.621-0.605,7.534
				C395.131,337.173,393.901,337.592,392.674,337.592z"/>
		</g>
	</g>
</g>
</svg>
