<?xml version="1.0" encoding="utf-8"?>
<!-- Generator: Adobe Illustrator 16.0.0, SVG Export Plug-In . SVG Version: 6.00 Build 0)  -->
<!DOCTYPE svg PUBLIC "-//W3C//DTD SVG 1.1//EN" "http://www.w3.org/Graphics/SVG/1.1/DTD/svg11.dtd">
<svg version="1.1" id="레이어_1" xmlns="http://www.w3.org/2000/svg" xmlns:xlink="http://www.w3.org/1999/xlink" x="0px"
	 y="0px" width="386.616px" height="453.242px" viewBox="13.736 2.758 386.616 453.242"
	 enable-background="new 13.736 2.758 386.616 453.242" xml:space="preserve">
<g>
	<g>
		<path fill="#FFFFFF" d="M92.664,257.727c0,0-81.825,23.154-71.846,73.884c6.202,31.526,53.55,8.444,85.983-40.146
			C139.233,242.869,92.664,257.727,92.664,257.727z"/>
		<path fill="#323333" d="M37.189,352.293c-0.002,0-0.004,0-0.006,0c-11.855-0.002-20.051-7.104-22.485-19.48
			c-4.621-23.485,7.472-45.077,34.971-62.44c19.304-12.189,39.502-18.131,41.208-18.621c0.993-0.307,8.003-2.398,15.042-2.398
			c10.29,0,14.822,4.435,16.812,8.154c4.32,8.076,0.907,19.967-10.742,37.42C89.443,328.703,58.686,352.293,37.189,352.293z
			 M105.918,261.824c-5.427,0-11.301,1.826-11.359,1.844c-0.066,0.021-0.131,0.041-0.198,0.061
			c-0.76,0.216-76.175,22.191-67.424,66.677c1.641,8.344,6.338,9.414,10.248,9.414c0.001,0,0.002,0,0.004,0
			C51.654,339.82,79.147,321.66,101.613,288c12.561-18.82,10.404-24.074,10.117-24.611
			C111.223,262.439,108.941,261.824,105.918,261.824z"/>
	</g>
	<g>
		<path fill="#FFFFFF" d="M321.427,304.217c0,0,81.824-23.153,71.847-73.881c-6.203-31.529-53.553-8.447-85.983,40.146
			C274.855,319.072,321.427,304.217,321.427,304.217z"/>
		<path fill="#323333" d="M308.173,312.594c0,0-0.001,0-0.003,0c-10.289-0.002-14.82-4.438-16.811-8.156
			c-4.318-8.077-0.904-19.967,10.742-37.418c22.545-33.776,53.305-57.369,74.805-57.369c11.854,0,20.051,7.102,22.484,19.48
			c4.621,23.486-7.473,45.078-34.971,62.441c-19.302,12.188-39.499,18.131-41.207,18.619
			C322.218,310.502,315.211,312.594,308.173,312.594z M376.906,222.125c-14.469,0-41.967,18.161-64.43,51.819
			c-12.562,18.817-10.403,24.073-10.117,24.608c0.51,0.951,2.791,1.566,5.813,1.566h0.001c5.429,0,11.3-1.826,11.357-1.844
			c0.065-0.021,0.132-0.041,0.196-0.062c0.76-0.215,76.176-22.19,67.426-66.676C385.511,223.195,380.814,222.125,376.906,222.125z"
			/>
	</g>
	<g>
		<path fill="#FFFFFF" d="M163.436,107.042c0,0-16.858-106.461-66.199-91.881c-35.865,10.597-14.295,56.567,19.188,91.326
			C141.26,132.268,157.337,136.98,163.436,107.042z"/>
		<path fill="#323333" d="M148.053,133.943C148.052,133.943,148.053,133.943,148.053,133.943c-9.571,0-20.711-7.134-36.119-23.127
			C89.261,87.28,67.271,53.671,73.547,29.925c1.867-7.061,7.184-16.391,21.922-20.745c3.655-1.08,7.308-1.627,10.858-1.627
			c20.401,0,37.308,17.031,50.252,50.62c9.117,23.657,12.862,46.915,13.017,47.895c0.116,0.736,0.1,1.488-0.049,2.22
			C166.079,125.31,158.846,133.943,148.053,133.943z M106.327,20.027c-2.354,0-4.817,0.375-7.323,1.115
			c-7.469,2.207-11.851,6.123-13.397,11.971c-4.019,15.204,10.172,42.953,35.31,69.048c15.373,15.958,23.242,19.308,27.136,19.309
			c4.77,0,7.526-7.68,9.04-14.575C152.883,81.66,136.199,20.027,106.327,20.027z"/>
	</g>
	<g>
		<path fill="#FFFFFF" d="M206.625,117.632c0,0-19.25-106.054,32.137-108.589c37.351-1.844,32.177,48.671,12.053,92.539
			C235.888,134.118,222.269,143.876,206.625,117.632z"/>
		<path fill="#323333" d="M224.325,138.932c-8.253,0-15.795-5.922-23.058-18.104c-0.382-0.643-0.646-1.346-0.779-2.08
			c-0.533-2.937-12.779-72.245,10.909-102.086c6.86-8.642,15.963-13.3,27.057-13.847c12.439-0.619,22.136,3.89,27.955,12.961
			c13.167,20.526,3.506,59.127-9.927,88.406C245.457,128.215,235.539,138.932,224.325,138.932z M212.563,115.396
			c4.353,7.046,8.611,11.061,11.762,11.061c2.47,0,9.443-2.677,20.82-27.476c14.917-32.521,19.244-63.251,10.764-76.472
			c-3.38-5.269-8.896-7.63-16.84-7.238c-7.454,0.367-13.31,3.358-17.902,9.145C204.721,45.134,209.224,96.021,212.563,115.396z"/>
	</g>
	<g>
		<path fill="#FFFFFF" d="M331.499,299.316c6.312,65.051-45.021,123.26-114.651,130.014l0,0
			c-69.629,6.754-131.19-40.502-137.501-105.551L68.904,216.137c-6.312-65.051,45.021-123.259,114.65-130.015l0,0
			c69.629-6.754,131.191,40.502,137.5,105.551L331.499,299.316z"/>
		<path fill="#323333" d="M203.613,436.209c-32.597,0-63.837-11.271-87.967-31.74c-24.409-20.707-39.505-49.147-42.507-80.086
			L62.696,216.739c-3.222-33.2,7.566-65.729,30.377-91.597c22.704-25.745,54.623-41.808,89.878-45.228
			c4.595-0.446,9.25-0.672,13.838-0.672c32.597,0,63.837,11.271,87.966,31.741c24.41,20.707,39.507,49.148,42.507,80.087
			l10.443,107.642c6.633,68.369-47.313,129.748-120.256,136.826C212.855,435.984,208.2,436.209,203.613,436.209z M196.79,91.717
			c-4.187,0-8.438,0.207-12.633,0.613c-32.098,3.114-61.122,17.697-81.728,41.063c-20.5,23.247-30.201,52.418-27.317,82.142
			l10.443,107.641c5.562,57.328,56.315,100.562,118.058,100.562c4.187,0,8.437-0.207,12.634-0.613
			c66.095-6.412,115.012-61.682,109.043-123.205l-10.442-107.643C309.286,134.948,258.533,91.717,196.79,91.717z"/>
	</g>
	<g>
		<path fill="#66BC84" d="M146.098,387.766c0,0-39.348,20.978-31.557,46.947c6.927,23.09,39.78,24.629,61.836-31.557
			L146.098,387.766z"/>
		<path fill="#323333" d="M133.005,456c-0.001,0-0.001,0-0.002,0c-11.466-0.004-20.829-7.473-24.436-19.494
			c-9.154-30.512,32.805-53.291,34.596-54.244c1.797-0.959,3.947-0.979,5.761-0.057l30.28,15.393
			c2.864,1.455,4.154,4.849,2.979,7.838C164.269,451.068,141.826,456,133.005,456z M146.33,394.879
			c-8.037,5.021-30.912,21.053-25.815,38.041c2.021,6.738,6.573,10.604,12.489,10.605c9.488,0,23.496-9.951,35.411-37.42
			L146.33,394.879z"/>
	</g>
	<g>
		<path fill="#66BC84" d="M275.932,381.766c0,0,42.107,14.675,38.404,41.533c-3.291,23.881-35.518,30.457-65.955-21.666
			L275.932,381.766z"/>
		<path fill="#323333" d="M295.188,447.49c-17.317,0-36.342-15.568-52.191-42.711c-1.62-2.775-0.868-6.326,1.738-8.205
			l27.552-19.867c1.649-1.189,3.778-1.502,5.7-0.832c1.916,0.668,46.881,16.721,42.529,48.275
			C318.591,438.111,308.412,447.49,295.188,447.49z M256.701,403.322c18.514,29.313,34.008,31.694,38.486,31.694
			c7.037,0,11.885-4.698,12.971-12.569c2.421-17.568-22.641-29.89-31.359-33.617L256.701,403.322z"/>
	</g>
	<g>
		<ellipse fill="#323333" cx="163.766" cy="194.742" rx="10.949" ry="13.756"/>
	</g>
	<g>
		<ellipse fill="#323333" cx="248.381" cy="189.127" rx="10.949" ry="13.757"/>
	</g>
	<g>
		<path fill="#FFFDF8" d="M187.466,222.081c0,0,24.773,22.527,47.193-1.04"/>
		<path fill="#323333" d="M211.902,238.039c-4.057,0-7.8-0.699-11.031-1.664c-10.239-3.059-17.305-9.411-17.601-9.68
			c-2.548-2.316-2.735-6.264-0.418-8.811c2.312-2.543,6.245-2.734,8.795-0.434c0.123,0.108,5.586,4.917,13.147,7.074
			c9.498,2.707,17.787,0.16,25.347-7.784c2.375-2.495,6.322-2.593,8.818-0.22c2.495,2.375,2.594,6.322,0.219,8.817
			C229.918,235.074,220.247,238.039,211.902,238.039z"/>
	</g>
	<g>
		<path fill="#66BC84" d="M77.064,293.996l-0.471,0.635l2.754,29.148c6.311,65.049,67.873,112.305,137.501,105.551
			c69.628-6.754,120.96-64.963,114.651-130.014l-2.515-25.912h-0.002C214.367,254.037,77.064,293.996,77.064,293.996z"/>
	</g>
	<g>
		<path fill="#323333" d="M203.613,436.209c-32.597,0-63.837-11.271-87.967-31.74c-24.409-20.707-39.505-49.147-42.507-80.086
			L62.696,216.739c-3.222-33.2,7.566-65.729,30.377-91.597c22.704-25.745,54.623-41.808,89.878-45.228
			c4.595-0.446,9.25-0.672,13.838-0.672c32.597,0,63.837,11.271,87.966,31.741c24.41,20.707,39.507,49.148,42.507,80.087
			l10.443,107.642c6.633,68.369-47.313,129.748-120.256,136.826C212.855,435.984,208.2,436.209,203.613,436.209z M196.79,91.717
			c-4.187,0-8.438,0.207-12.633,0.613c-32.098,3.114-61.122,17.697-81.728,41.063c-20.5,23.247-30.201,52.418-27.317,82.142
			l10.443,107.641c5.562,57.328,56.315,100.562,118.058,100.562c4.187,0,8.437-0.207,12.634-0.613
			c66.095-6.412,115.012-61.682,109.043-123.205l-10.442-107.643C309.286,134.948,258.533,91.717,196.79,91.717z"/>
	</g>
	<g>
		<line fill="none" x1="319.957" y1="99.321" x2="337.723" y2="66.533"/>
		<path fill="#EDD36C" d="M324.39,102.413c-1.551,2.229-4.563,2.984-7.007,1.658c-2.625-1.421-3.602-4.703-2.179-7.327
			l17.764-32.787c1.419-2.622,4.704-3.6,7.33-2.178c2.622,1.423,3.598,4.703,2.176,7.328l-17.765,32.787
			C324.612,102.076,324.504,102.248,324.39,102.413z"/>
	</g>
	<g>
		<line fill="none" x1="345.319" y1="125.827" x2="362.304" y2="112.611"/>
		<path fill="#EDD36C" d="M366.743,115.699c-0.303,0.436-0.677,0.834-1.119,1.179l-16.985,13.214
			c-2.357,1.832-5.754,1.408-7.586-0.947c-1.836-2.357-1.409-5.755,0.947-7.588l16.984-13.212c2.355-1.833,5.753-1.409,7.587,0.945
			C368.06,111.206,368.06,113.807,366.743,115.699z"/>
	</g>
	<g>
		<line fill="none" x1="355.17" y1="164.396" x2="389.599" y2="161.031"/>
		<path fill="#EDD36C" d="M394.036,164.117c-0.874,1.255-2.272,2.133-3.914,2.293l-34.427,3.367
			c-2.97,0.292-5.613-1.883-5.905-4.854c-0.29-2.973,1.882-5.616,4.854-5.906l34.426-3.365c2.972-0.29,5.617,1.883,5.909,4.853
			C395.107,161.834,394.744,163.099,394.036,164.117z"/>
	</g>
</g>
</svg>
