<?xml version="1.0" encoding="utf-8"?>
<!-- Generator: Adobe Illustrator 16.0.0, SVG Export Plug-In . SVG Version: 6.00 Build 0)  -->
<!DOCTYPE svg PUBLIC "-//W3C//DTD SVG 1.1//EN" "http://www.w3.org/Graphics/SVG/1.1/DTD/svg11.dtd">
<svg version="1.1" id="레이어_1" xmlns="http://www.w3.org/2000/svg" xmlns:xlink="http://www.w3.org/1999/xlink" x="0px"
	 y="0px" width="479.86px" height="448.112px" viewBox="-37.077 2.565 479.86 448.112"
	 enable-background="new -37.077 2.565 479.86 448.112" xml:space="preserve">
<g>
	<g>
		<g>
			<path fill="#FFFFFF" d="M40.956,254.648c0,0-80.899,22.893-71.032,73.047c6.132,31.172,52.944,8.35,85.01-39.692
				S40.956,254.648,40.956,254.648z"/>
		</g>
		<g>
			<path fill="#323333" d="M-13.891,348.146c-0.002,0-0.003,0-0.005,0c-11.721-0.004-19.824-7.022-22.231-19.262
				c-4.568-23.22,7.388-44.566,34.575-61.734c19.085-12.051,39.055-17.926,40.742-18.409c0.981-0.306,7.912-2.373,14.871-2.373
				c10.174,0,14.654,4.385,16.621,8.063c4.271,7.984,0.896,19.74-10.619,36.995C37.772,324.822,7.362,348.146-13.891,348.146z
				 M54.062,258.701c-5.366,0-11.174,1.805-11.23,1.822c-0.064,0.021-0.131,0.039-0.195,0.06
				c-0.75,0.213-75.313,21.94-66.662,65.922c1.623,8.248,6.267,9.307,10.132,9.308c0.001,0,0.002,0,0.003,0
				c14.302,0,41.483-17.953,63.695-51.232c12.419-18.605,10.287-23.803,10.003-24.332C59.306,259.307,57.05,258.701,54.062,258.701z
				"/>
		</g>
	</g>
	<g>
		<g>
			<path fill="#FFFFFF" d="M267.13,300.611c0,0,80.9-22.891,71.033-73.045c-6.131-31.172-52.945-8.351-85.011,39.691
				C221.089,315.301,267.13,300.611,267.13,300.611z"/>
		</g>
		<g>
			<path fill="#323333" d="M254.028,308.894c0,0-0.002,0-0.003,0c-10.173,0-14.653-4.385-16.62-8.063
				c-4.27-7.985-0.896-19.741,10.619-36.994c22.29-33.396,52.702-56.719,73.958-56.719c11.721,0,19.824,7.02,22.232,19.26
				c4.568,23.222-7.387,44.567-34.574,61.735c-19.085,12.05-39.055,17.924-40.743,18.409
				C267.914,306.827,260.986,308.894,254.028,308.894z M321.982,219.449c-14.303,0-41.488,17.955-63.699,51.234
				c-12.419,18.604-10.285,23.799-10.002,24.33c0.504,0.939,2.758,1.547,5.745,1.547c0.001,0,0.002,0,0.002,0
				c5.367,0,11.171-1.805,11.228-1.822c0.065-0.021,0.132-0.041,0.197-0.061c0.75-0.213,75.313-21.938,66.662-65.922
				C330.49,220.508,325.848,219.449,321.982,219.449z"/>
		</g>
	</g>
	<g>
		<g>
			<path fill="#FFFFFF" d="M110.929,105.669c0,0-16.668-105.257-65.451-90.842C10.019,25.305,31.344,70.756,64.45,105.121
				C89.003,130.609,104.898,135.269,110.929,105.669z"/>
		</g>
		<g>
			<path fill="#323333" d="M95.72,132.266C95.719,132.266,95.72,132.266,95.72,132.266c-9.464,0-20.477-7.052-35.711-22.867
				C37.593,86.13,15.852,52.902,22.056,29.425c1.846-6.98,7.104-16.206,21.674-20.511c3.613-1.068,7.226-1.609,10.736-1.609
				c20.17,0,36.885,16.839,49.684,50.048c9.014,23.39,12.716,46.385,12.869,47.353c0.115,0.729,0.1,1.473-0.048,2.195
				C113.542,123.73,106.391,132.266,95.72,132.266z M54.466,19.638c-2.326,0-4.764,0.371-7.24,1.104
				c-7.385,2.182-11.718,6.053-13.245,11.835c-3.974,15.032,10.056,42.467,34.91,68.267c15.198,15.778,22.979,19.09,26.829,19.09
				c4.715,0,7.44-7.593,8.938-14.41C100.495,80.573,83.999,19.638,54.466,19.638z"/>
		</g>
	</g>
	<g>
		<g>
			<path fill="#FFFFFF" d="M153.628,116.14c0,0-19.033-104.854,31.773-107.362c36.93-1.822,31.813,48.122,11.917,91.493
				C182.561,132.438,169.096,142.086,153.628,116.14z"/>
		</g>
		<g>
			<path fill="#323333" d="M171.128,137.198c-8.158,0-15.615-5.855-22.797-17.9c-0.377-0.634-0.639-1.33-0.77-2.056
				c-0.527-2.902-12.635-71.428,10.785-100.931c6.782-8.544,15.783-13.15,26.751-13.691c12.304-0.605,21.886,3.847,27.639,12.815
				c13.019,20.295,3.466,58.459-9.813,87.407C192.022,126.603,182.216,137.198,171.128,137.198z M159.499,113.929
				c4.305,6.966,8.514,10.937,11.629,10.937c2.442,0,9.337-2.647,20.586-27.166c14.748-32.152,19.025-62.536,10.642-75.606
				c-3.342-5.209-8.796-7.542-16.649-7.156c-7.369,0.364-13.159,3.321-17.699,9.041C151.746,44.461,156.198,94.772,159.499,113.929z
				"/>
		</g>
	</g>
	<g>
		<g>
			<path fill="#FFFFFF" d="M357.111,16.569c-43.908,0-79.504,35.596-79.504,79.503c0,25.588,12.092,48.349,30.868,62.891l0,0
				c0,0-22.086,41.918,16.073,9.66v-0.001c9.938,4.468,20.961,6.956,32.563,6.956c43.908,0,79.504-35.596,79.504-79.504
				C436.615,52.165,401.021,16.569,357.111,16.569z"/>
		</g>
		<g>
			<path fill="#323333" d="M304.927,186.989c-3.217,0-5.971-1.504-7.555-4.128c-2.258-3.741-1.817-9.128,1.426-17.465
				c0.666-1.712,1.371-3.344,2.013-4.751c-18.728-16.298-29.369-39.559-29.369-64.572c0-47.238,38.433-85.669,85.67-85.669
				s85.671,38.431,85.671,85.669c0,47.239-38.434,85.67-85.671,85.67c-10.909,0-21.491-2.011-31.51-5.983
				C313.49,185.591,308.347,186.989,304.927,186.989z M357.111,22.736c-40.438,0-73.337,32.899-73.337,73.336
				c0,22.854,10.38,44,28.478,58.015c2.365,1.833,3.074,5.101,1.681,7.75c-1.845,3.508-3.521,7.463-4.563,10.577
				c2.44-1.541,6.033-4.135,11.199-8.501c1.813-1.532,4.344-1.887,6.51-0.916c9.465,4.255,19.57,6.412,30.033,6.412
				c40.438,0,73.338-32.899,73.338-73.337S397.55,22.736,357.111,22.736z"/>
		</g>
	</g>
	<g>
		<g>
			<path fill="#FFFFFF" d="M277.089,295.768c6.238,64.315-44.512,121.865-113.354,128.545l0,0
				C94.896,430.989,34.03,384.268,27.79,319.954L17.466,213.528c-6.24-64.314,44.512-121.863,113.352-128.542l0,0
				c68.842-6.678,129.708,40.043,135.946,104.356L277.089,295.768z"/>
		</g>
		<g>
			<path fill="#323333" d="M150.65,431.113c-32.229,0-63.115-11.146-86.972-31.383c-24.133-20.473-39.059-48.594-42.025-79.182
				L11.328,214.124C8.144,181.3,18.81,149.14,41.361,123.565C63.808,98.11,95.366,82.23,130.222,78.848
				c4.544-0.441,9.147-0.664,13.683-0.664c32.228,0,63.114,11.145,86.971,31.382c24.133,20.472,39.06,48.592,42.026,79.18
				l10.324,106.424c6.559,67.596-46.778,128.281-118.895,135.278C159.788,430.89,155.186,431.113,150.65,431.113z M143.905,90.518
				c-4.141,0-8.343,0.204-12.491,0.606c-31.734,3.079-60.431,17.498-80.803,40.599c-20.268,22.983-29.859,51.825-27.009,81.21
				l10.325,106.426c5.499,56.68,55.679,99.422,116.723,99.422c4.14,0,8.342-0.204,12.491-0.606
				c65.348-6.34,113.711-60.984,107.81-121.812l-10.324-106.424C255.128,133.259,204.948,90.518,143.905,90.518z"/>
		</g>
	</g>
	<g>
		<g>
			<path fill="#66BC84" d="M93.786,383.216c0,0-38.903,20.741-31.199,46.417c6.848,22.829,39.33,24.353,61.137-31.199
				L93.786,383.216z"/>
		</g>
		<g>
			<path fill="#323333" d="M80.842,450.678c-0.001,0-0.001,0-0.003,0c-11.336-0.001-20.593-7.386-24.158-19.272
				c-9.051-30.165,32.434-52.688,34.203-53.63c1.777-0.946,3.903-0.967,5.696-0.057l29.938,15.219
				c2.832,1.438,4.106,4.795,2.946,7.749C111.752,445.804,89.563,450.678,80.842,450.678z M94.016,390.249
				c-7.946,4.963-30.562,20.816-25.522,37.612c1.998,6.661,6.498,10.481,12.348,10.482c9.381,0,23.23-9.839,35.01-36.995
				L94.016,390.249z"/>
		</g>
	</g>
	<g>
		<g>
			<path fill="#66BC84" d="M222.152,377.284c0,0,41.631,14.509,37.969,41.063c-3.254,23.61-35.115,30.112-65.208-21.422
				L222.152,377.284z"/>
		</g>
		<g>
			<path fill="#323333" d="M241.19,442.267c-17.123,0-35.932-15.393-51.604-42.229c-1.602-2.743-0.857-6.255,1.719-8.111
				l27.24-19.643c1.633-1.178,3.736-1.483,5.636-0.821c1.895,0.659,46.352,16.529,42.049,47.729
				C264.328,432.993,254.265,442.267,241.19,442.267z M203.139,398.598c18.304,28.983,33.624,31.336,38.052,31.336
				c6.957,0,11.75-4.646,12.822-12.427c2.404-17.437-22.376-29.574-30.999-33.241L203.139,398.598z"/>
		</g>
	</g>
	<g>
		<g>
			<path fill="#313333" d="M159.702,241.331c-9.981,0-16.764-14.339-17.637-24.249c-1.213-13.801,11.24-14.896,16.559-15.363
				c1.158-0.103,2.672-0.22,4.119-0.22c8.151,0,12.477,4.122,13.223,12.598c0.908,10.328-5.146,26.295-15.369,27.196
				C160.298,241.318,159.999,241.331,159.702,241.331z M162.743,210.544c-1.096,0-2.354,0.098-3.327,0.183
				c-8.407,0.74-8.634,2.24-8.341,5.563c0.667,7.57,5.711,15.999,8.627,15.999c0.034,0,0.068-0.003,0.102-0.005
				c2.996-0.263,7.84-9.571,7.152-17.394C166.573,210.544,165.53,210.544,162.743,210.544z"/>
		</g>
	</g>
	<g>
		<g>
			<path fill="#66BC84" d="M25.533,290.507l-0.466,0.629l2.723,28.818c6.24,64.313,67.105,111.035,135.946,104.356
				c68.841-6.679,119.592-64.229,113.354-128.543l-2.485-25.621l0,0C161.283,251.002,25.533,290.507,25.533,290.507z"/>
		</g>
	</g>
	<g>
		<g>
			<path fill="#323333" d="M150.65,431.113c-32.229,0-63.115-11.146-86.972-31.383c-24.133-20.473-39.059-48.594-42.025-79.182
				L11.328,214.124C8.144,181.3,18.81,149.14,41.361,123.565C63.808,98.11,95.366,82.23,130.222,78.848
				c4.544-0.441,9.147-0.664,13.683-0.664c32.228,0,63.114,11.145,86.971,31.382c24.133,20.472,39.06,48.592,42.026,79.18
				l10.324,106.424c6.559,67.596-46.778,128.281-118.895,135.278C159.788,430.89,155.186,431.113,150.65,431.113z M143.905,90.518
				c-4.141,0-8.343,0.204-12.491,0.606c-31.734,3.079-60.431,17.498-80.803,40.599c-20.268,22.983-29.859,51.825-27.009,81.21
				l10.325,106.426c5.499,56.68,55.679,99.422,116.723,99.422c4.14,0,8.342-0.204,12.491-0.606
				c65.348-6.34,113.711-60.984,107.81-121.812l-10.324-106.424C255.128,133.259,204.948,90.518,143.905,90.518z"/>
		</g>
	</g>
	<g>
		<g>
			<path fill="#375FAA" d="M342.658,55.09c1.266-0.761,3.641-1.143,7.127-1.143c3.481,0,6.73,0.382,9.74,1.143
				c2.852,0.764,5.621,1.143,8.316,1.143c2.375,0,4.99,0.535,7.841,1.598c2.853,1.068,4.752,2.21,5.702,3.427
				c4.433,5.18,8.234,9.446,11.404,12.794c0.631,0.914,1.979,2.056,4.039,3.426c3.957,2.592,6.178,5.712,6.652,9.367
				c0,1.524,0.395,3.124,1.188,4.797c0.949,2.439,0.789,4.797-0.477,7.083c-0.793,1.524-1.188,2.82-1.188,3.883
				c0,1.067-0.475,2.591-1.426,4.569c-2.535,4.876-3.961,8.988-4.277,12.337c-0.318,1.827-1.188,3.466-2.613,4.913
				c-1.425,1.449-4.514,3.769-9.266,6.968c-6.338,4.112-11.922,6.589-16.75,7.424c-4.834,0.839-10.812,0.422-17.938-1.256
				c-2.22-0.607-5.228-1.064-9.028-1.371c-3.326-0.15-6.1-0.988-8.315-2.513c-1.899-1.217-3.726-2.206-5.466-2.97
				c-0.949-0.606-2.297-1.713-4.038-3.312c-1.745-1.6-2.613-2.628-2.613-3.085c0-0.303-1.349-1.827-4.04-4.568
				c-1.9-1.978-3.129-3.463-3.684-4.456c-0.557-0.988-1.307-3.461-2.256-7.424c-0.951-3.958-0.713-8.528,0.713-13.708
				c0.791-3.198,1.188-5.787,1.188-7.768c0.155-1.978,0.475-3.805,0.949-5.483c0.632-1.521,1.268-3.198,1.9-5.025
				c0.951-3.045,3.008-5.176,6.178-6.397c1.268-0.457,2.455-1.293,3.564-2.514c1.106-1.063,2.295-1.749,3.563-2.056
				c1.106-0.15,3.325-1.674,6.651-4.569C339.169,57.604,341.386,55.854,342.658,55.09z M350.973,73.709
				c-4.753,0.992-8.636,2.552-11.644,4.683c-1.109,0.765-1.781,1.411-2.02,1.943c-0.236,0.535-0.516,1.792-0.831,3.77
				c-0.319,1.524-0.872,2.97-1.663,4.341c-1.426,1.98-2.299,3.427-2.613,4.341c-0.32,0.914-0.476,2.666-0.476,5.254
				c0,6.094,2.53,11.502,7.603,16.221c5.068,4.723,10.135,6.55,15.207,5.483c2.852-0.607,5.146-0.914,6.891-0.914
				c1.58-0.15,2.851-0.493,3.802-1.028c0.95-0.532,2.612-0.8,4.989-0.8c4.433,0,7.205-1.599,8.316-4.798
				c0.475-1.52,1.225-2.891,2.256-4.111c1.028-1.217,1.701-3.806,2.021-7.769c0.95-11.879-3.011-19.111-11.88-21.703
				c-2.061-0.606-3.803-1.37-5.229-2.284c-1.426-1.064-2.771-1.902-4.039-2.513C359.289,72.76,355.725,72.721,350.973,73.709z"/>
			<path fill="#375FAA" d="M363.453,139.651c-3.746,0-8.057-0.568-12.813-1.688c-2.205-0.602-5.217-1.059-8.967-1.361
				c-3.375-0.152-6.246-1.021-8.518-2.584c-1.852-1.186-3.671-2.174-5.396-2.933c-1.027-0.65-2.367-1.748-4.151-3.386
				c-2.421-2.219-2.747-2.957-2.747-3.388c-0.051-0.096-0.557-0.853-3.921-4.28c-1.948-2.027-3.174-3.512-3.748-4.544
				c-0.575-1.022-1.329-3.485-2.298-7.529c-0.963-4.008-0.723-8.688,0.717-13.913c0.777-3.144,1.172-5.725,1.172-7.658
				c0.158-2.014,0.482-3.885,0.967-5.595c0.646-1.563,1.281-3.246,1.908-5.049c0.98-3.144,3.141-5.384,6.418-6.646
				c1.207-0.435,2.35-1.244,3.406-2.407c1.176-1.129,2.438-1.856,3.771-2.179c0.744-0.103,2.432-0.957,6.479-4.479
				c3.166-2.741,5.425-4.523,6.711-5.297c1.347-0.808,3.746-1.201,7.339-1.201c3.496,0,6.809,0.389,9.844,1.155
				c2.801,0.75,5.563,1.129,8.215,1.129c2.406,0,5.094,0.547,7.984,1.625c2.95,1.105,4.875,2.27,5.883,3.559
				c4.408,5.15,8.24,9.45,11.379,12.764c0.637,0.915,1.959,2.031,3.969,3.368c4.043,2.649,6.344,5.898,6.832,9.656
				c0.004,1.513,0.391,3.068,1.152,4.674c1.002,2.57,0.834,5.071-0.488,7.458c-0.752,1.443-1.135,2.687-1.135,3.685
				c0,1.141-0.48,2.694-1.467,4.747c-2.506,4.817-3.932,8.917-4.238,12.197c-0.338,1.939-1.254,3.665-2.73,5.162
				c-1.449,1.473-4.5,3.769-9.328,7.021c-6.365,4.13-12.053,6.648-16.91,7.489C367.115,139.508,365.335,139.651,363.453,139.651z
				 M349.785,54.359c-3.393,0-5.719,0.364-6.916,1.084c-1.246,0.75-3.467,2.503-6.597,5.212c-3.419,2.977-5.665,4.503-6.866,4.666
				c-1.148,0.28-2.285,0.938-3.334,1.946c-1.129,1.242-2.383,2.125-3.709,2.604c-3.064,1.179-5.006,3.187-5.925,6.133
				c-0.636,1.83-1.278,3.528-1.913,5.06c-0.455,1.612-0.77,3.431-0.921,5.357c0.001,1.968-0.403,4.614-1.198,7.834
				c-1.402,5.098-1.643,9.641-0.713,13.513c0.938,3.913,1.686,6.376,2.217,7.32c0.533,0.957,1.75,2.427,3.62,4.371
				c4.153,4.231,4.153,4.591,4.153,4.854c0.006,0.088,0.152,0.647,2.48,2.782c1.725,1.583,3.063,2.682,3.981,3.269
				c1.709,0.745,3.565,1.754,5.465,2.97c2.154,1.482,4.882,2.303,8.113,2.449c3.815,0.308,6.879,0.772,9.118,1.384
				c7.015,1.65,13.002,2.073,17.761,1.249c4.748-0.821,10.332-3.299,16.599-7.364c4.709-3.171,7.805-5.498,9.195-6.912
				c1.355-1.375,2.197-2.956,2.5-4.695c0.314-3.354,1.771-7.556,4.318-12.456c0.912-1.901,1.379-3.378,1.379-4.379
				c0-1.132,0.416-2.502,1.234-4.074c1.219-2.203,1.367-4.406,0.457-6.743c-0.805-1.69-1.217-3.363-1.217-4.947
				c-0.453-3.457-2.631-6.51-6.467-9.023c-2.129-1.416-3.486-2.572-4.152-3.537c-3.107-3.274-6.949-7.584-11.379-12.76
				c-0.91-1.164-2.768-2.273-5.533-3.31c-2.799-1.043-5.389-1.572-7.697-1.572c-2.723,0-5.557-0.389-8.422-1.156
				C356.457,54.739,353.212,54.359,349.785,54.359z M351.732,120.45c-4.223,0-8.49-1.98-12.682-5.888
				c-5.133-4.775-7.734-10.334-7.734-16.522c0-2.667,0.162-4.431,0.498-5.39c0.33-0.955,1.202-2.409,2.668-4.445
				c0.742-1.289,1.285-2.708,1.594-4.185c0.32-2.006,0.602-3.274,0.858-3.852c0.271-0.608,0.979-1.299,2.161-2.115
				c3.033-2.147,7.002-3.746,11.793-4.747c4.822-1.002,8.492-0.954,10.943,0.143c1.293,0.623,2.674,1.482,4.116,2.559
				c1.369,0.876,3.093,1.628,5.099,2.219c9.041,2.642,13.137,10.088,12.172,22.13c-0.328,4.088-1.021,6.705-2.113,8
				c-0.988,1.168-1.723,2.504-2.18,3.97c-1.172,3.379-4.1,5.086-8.709,5.086c-2.289,0-3.9,0.251-4.789,0.747
				c-0.993,0.561-2.328,0.924-3.963,1.08c-1.733,0.002-4.023,0.306-6.844,0.906C353.664,120.348,352.691,120.45,351.732,120.45z
				 M357.007,73.407c-1.7,0-3.702,0.236-5.95,0.704c-4.681,0.977-8.546,2.531-11.488,4.617c-1.302,0.896-1.741,1.458-1.883,1.774
				c-0.151,0.346-0.417,1.265-0.802,3.667c-0.329,1.581-0.904,3.082-1.713,4.481c-1.42,1.977-2.28,3.402-2.58,4.269
				c-0.301,0.86-0.452,2.582-0.452,5.12c0,5.951,2.514,11.306,7.473,15.92c4.943,4.607,9.927,6.417,14.841,5.382
				c2.916-0.621,5.197-0.923,6.975-0.923c1.48-0.142,2.705-0.471,3.601-0.975c1.026-0.574,2.726-0.853,5.19-0.853
				c4.279,0,6.873-1.479,7.929-4.521c0.485-1.559,1.272-2.99,2.331-4.243c0.966-1.143,1.613-3.678,1.924-7.536
				c0.941-11.763-2.848-18.722-11.585-21.276c-2.081-0.612-3.874-1.397-5.334-2.332c-1.425-1.062-2.761-1.894-3.995-2.49
				C360.322,73.674,358.813,73.407,357.007,73.407z"/>
		</g>
	</g>
	<g>
		<g>
			<path fill="#313333" d="M100.579,204.656c-2.422,0-4.615-1.657-5.195-4.116c-0.68-2.872,1.098-5.751,3.971-6.431l3.929-0.929
				l-2.712-0.675c-2.864-0.713-4.608-3.612-3.896-6.477c0.713-2.864,3.612-4.604,6.477-3.895l24.08,5.995
				c2.394,0.596,4.068,2.752,4.054,5.218c-0.014,2.466-1.715,4.603-4.114,5.169l-25.359,5.995
				C101.399,204.609,100.987,204.656,100.579,204.656z"/>
		</g>
	</g>
	<g>
		<g>
			<path fill="#313333" d="M206.386,196.712c-0.228,0-0.457-0.015-0.688-0.045l-22.03-2.835c-2.357-0.304-4.231-2.127-4.599-4.477
				c-0.366-2.349,0.863-4.657,3.016-5.665l18.723-8.762c2.673-1.247,5.855-0.096,7.105,2.576c1.252,2.672,0.099,5.854-2.575,7.105
				l-2.067,0.968l3.793,0.487c2.927,0.378,4.994,3.057,4.617,5.984C211.333,194.744,209.033,196.712,206.386,196.712z"/>
		</g>
	</g>
	<g>
		<g>
			<path fill="#EC867D" d="M225.153,229.986c-0.268,0-0.537-0.025-0.805-0.078c-1.244-0.247-2.305-1.059-2.871-2.192l-1.915-3.829
				l-5.294,4.983c-1.653,1.558-4.256,1.479-5.812-0.177c-1.556-1.652-1.478-4.254,0.177-5.812l9.317-8.769
				c0.946-0.893,2.257-1.282,3.537-1.055c1.279,0.229,2.376,1.048,2.957,2.209l2.021,4.038l6.14-5.309
				c1.716-1.485,4.313-1.298,5.798,0.42c1.485,1.717,1.297,4.313-0.42,5.799l-10.141,8.77
				C227.089,229.639,226.133,229.986,225.153,229.986z"/>
		</g>
	</g>
	<g>
		<g>
			<path fill="#EC867D" d="M97.844,238.758c-0.268,0-0.538-0.027-0.805-0.08c-1.245-0.248-2.305-1.057-2.872-2.191l-1.914-3.828
				l-5.295,4.982c-1.652,1.557-4.255,1.479-5.811-0.177c-1.557-1.653-1.477-4.254,0.176-5.812l9.318-8.771
				c0.945-0.892,2.257-1.283,3.537-1.054c1.279,0.229,2.375,1.047,2.957,2.209l2.02,4.039l6.141-5.311
				c1.716-1.484,4.313-1.297,5.798,0.421c1.485,1.718,1.297,4.313-0.421,5.798l-10.141,8.771
				C99.779,238.407,98.823,238.758,97.844,238.758z"/>
		</g>
	</g>
</g>
</svg>
