<?xml version="1.0" encoding="utf-8"?>
<!-- Generator: Adobe Illustrator 16.0.0, SVG Export Plug-In . SVG Version: 6.00 Build 0)  -->
<!DOCTYPE svg PUBLIC "-//W3C//DTD SVG 1.1//EN" "http://www.w3.org/Graphics/SVG/1.1/DTD/svg11.dtd">
<svg version="1.1" id="레이어_1" xmlns="http://www.w3.org/2000/svg" xmlns:xlink="http://www.w3.org/1999/xlink" x="0px"
	 y="0px" width="386.617px" height="453.242px" viewBox="0 0 386.617 453.242" enable-background="new 0 0 386.617 453.242"
	 xml:space="preserve">
<g>
	<g>
		<path fill="#FFFFFF" d="M78.928,254.969c0,0-81.825,23.154-71.846,73.885c6.202,31.525,53.55,8.443,85.983-40.146
			C125.497,240.111,78.928,254.969,78.928,254.969z"/>
		<path fill="#323333" d="M23.453,349.535c-0.002,0-0.004,0-0.006,0c-11.855-0.002-20.051-7.104-22.485-19.48
			c-4.621-23.484,7.472-45.076,34.971-62.439c19.304-12.189,39.502-18.131,41.208-18.621c0.993-0.307,8.003-2.398,15.042-2.398
			c10.29,0,14.822,4.436,16.812,8.154c4.32,8.076,0.907,19.967-10.742,37.42C75.707,325.945,44.95,349.535,23.453,349.535z
			 M92.182,259.066c-5.427,0-11.301,1.826-11.359,1.844c-0.066,0.021-0.131,0.041-0.198,0.061
			c-0.76,0.217-76.175,22.191-67.424,66.678c1.641,8.344,6.338,9.414,10.248,9.414c0.001,0,0.002,0,0.004,0
			c14.465,0,41.958-18.16,64.424-51.82c12.561-18.82,10.404-24.074,10.117-24.611C97.487,259.682,95.205,259.066,92.182,259.066z"/>
	</g>
	<g>
		<path fill="#FFFFFF" d="M293.554,268.732c32.43,48.594,79.781,71.676,85.984,40.146c9.977-50.729-71.848-73.881-71.848-73.881
			S261.119,220.143,293.554,268.732z"/>
		<path fill="#323333" d="M309.476,229.023c1.707,0.488,21.904,6.432,41.207,18.619c27.498,17.363,39.592,38.955,34.971,62.441
			c-2.434,12.378-10.631,19.48-22.484,19.48c-21.5,0-52.26-23.594-74.805-57.369c-11.646-17.451-15.061-29.342-10.742-37.418
			c1.992-3.719,6.521-8.154,16.811-8.156c0.002,0,0.004,0,0.004,0C301.474,226.621,308.482,228.713,309.476,229.023z
			 M373.416,307.679c8.75-44.485-66.666-66.461-67.426-66.676c-0.064-0.021-0.131-0.041-0.195-0.062
			c-0.057-0.019-5.928-1.845-11.357-1.845h-0.002c-3.021,0-5.303,0.615-5.813,1.566c-0.285,0.534-2.445,5.791,10.117,24.608
			c22.463,33.657,49.961,51.818,64.43,51.818C367.078,317.09,371.775,316.02,373.416,307.679z"/>
	</g>
	<g>
		<path fill="#FFFFFF" d="M149.7,104.284c0,0-16.858-106.461-66.199-91.881C47.636,23,69.206,68.97,102.689,103.729
			C127.524,129.51,143.601,134.222,149.7,104.284z"/>
		<path fill="#323333" d="M134.317,131.185C134.316,131.185,134.317,131.185,134.317,131.185c-9.571,0-20.711-7.134-36.119-23.127
			C75.525,84.522,53.535,50.913,59.811,27.167c1.867-7.061,7.184-16.391,21.922-20.745c3.655-1.08,7.308-1.627,10.858-1.627
			c20.401,0,37.308,17.031,50.252,50.62c9.117,23.657,12.862,46.915,13.017,47.895c0.116,0.736,0.1,1.488-0.049,2.22
			C152.343,122.552,145.11,131.185,134.317,131.185z M92.591,17.269c-2.354,0-4.817,0.375-7.323,1.115
			c-7.469,2.207-11.851,6.123-13.397,11.971c-4.019,15.204,10.172,42.953,35.31,69.048c15.373,15.958,23.242,19.308,27.136,19.309
			c4.77,0,7.526-7.68,9.04-14.575C139.147,78.902,122.463,17.269,92.591,17.269z"/>
	</g>
	<g>
		<path fill="#FFFFFF" d="M192.889,114.874c0,0-19.25-106.054,32.138-108.589c37.35-1.844,32.176,48.671,12.053,92.539
			C222.152,131.36,208.533,141.118,192.889,114.874z"/>
		<path fill="#323333" d="M210.589,136.174c-8.254,0-15.795-5.922-23.058-18.104c-0.383-0.643-0.646-1.346-0.779-2.08
			c-0.533-2.937-12.779-72.245,10.91-102.086c6.859-8.642,15.963-13.3,27.057-13.847c12.439-0.619,22.135,3.89,27.955,12.961
			c13.166,20.526,3.506,59.127-9.928,88.406C231.72,125.457,221.802,136.174,210.589,136.174z M198.828,112.638
			c4.352,7.046,8.609,11.061,11.762,11.061c2.469,0,9.443-2.677,20.82-27.476c14.916-32.521,19.244-63.251,10.764-76.472
			c-3.381-5.269-8.896-7.63-16.84-7.238c-7.455,0.367-13.311,3.358-17.902,9.145C190.985,42.376,195.488,93.263,198.828,112.638z"/>
	</g>
	<g>
		<path fill="#FFFFFF" d="M317.763,296.559c6.313,65.051-45.021,123.26-114.65,130.014l0,0
			c-69.63,6.754-131.19-40.502-137.501-105.551L55.168,213.379c-6.312-65.051,45.021-123.259,114.65-130.015l0,0
			c69.628-6.754,131.191,40.502,137.5,105.551L317.763,296.559z"/>
		<path fill="#323333" d="M189.877,433.451c-32.597,0-63.837-11.271-87.967-31.74c-24.409-20.707-39.505-49.146-42.507-80.086
			L48.96,213.981c-3.222-33.2,7.566-65.729,30.377-91.597c22.704-25.745,54.623-41.808,89.878-45.228
			c4.595-0.446,9.25-0.672,13.837-0.672c32.597,0,63.837,11.271,87.966,31.741c24.41,20.707,39.506,49.148,42.506,80.087
			l10.443,107.642c6.633,68.369-47.313,129.748-120.256,136.826C199.119,433.227,194.464,433.451,189.877,433.451z M183.055,88.959
			c-4.188,0-8.438,0.207-12.633,0.613c-32.098,3.114-61.122,17.697-81.728,41.063c-20.5,23.247-30.201,52.418-27.317,82.142
			l10.443,107.641c5.562,57.328,56.315,100.563,118.058,100.563c4.187,0,8.437-0.207,12.634-0.613
			c66.094-6.412,115.012-61.682,109.043-123.205l-10.441-107.643C295.55,132.19,244.796,88.959,183.055,88.959z"/>
	</g>
	<g>
		<path fill="#66BC84" d="M132.362,385.008c0,0-39.348,20.979-31.557,46.947c6.927,23.09,39.78,24.629,61.836-31.557
			L132.362,385.008z"/>
		<path fill="#323333" d="M119.269,453.242c-0.001,0-0.001,0-0.002,0c-11.466-0.004-20.829-7.473-24.436-19.494
			c-9.154-30.512,32.805-53.291,34.596-54.244c1.797-0.959,3.947-0.979,5.761-0.057l30.28,15.393
			c2.864,1.455,4.154,4.85,2.979,7.838C150.533,448.311,128.09,453.242,119.269,453.242z M132.594,392.121
			c-8.037,5.021-30.912,21.053-25.815,38.041c2.021,6.738,6.573,10.604,12.489,10.605c9.488,0,23.496-9.951,35.411-37.42
			L132.594,392.121z"/>
	</g>
	<g>
		<path fill="#66BC84" d="M262.197,379.008c0,0,42.105,14.676,38.402,41.533c-3.291,23.881-35.518,30.457-65.955-21.666
			L262.197,379.008z"/>
		<path fill="#323333" d="M281.453,444.732c-17.318,0-36.342-15.568-52.191-42.711c-1.621-2.775-0.869-6.326,1.738-8.205
			l27.551-19.867c1.65-1.189,3.779-1.502,5.701-0.832c1.916,0.668,46.881,16.721,42.529,48.275
			C304.855,435.354,294.675,444.732,281.453,444.732z M242.964,400.564c18.514,29.313,34.008,31.693,38.486,31.693
			c7.037,0,11.885-4.697,12.971-12.568c2.422-17.568-22.641-29.891-31.359-33.617L242.964,400.564z"/>
	</g>
	<g>
		<ellipse fill="#323333" cx="150.03" cy="191.984" rx="10.949" ry="13.756"/>
	</g>
	<g>
		<ellipse fill="#323333" cx="234.644" cy="186.369" rx="10.949" ry="13.757"/>
	</g>
	<g>
		<path fill="#66BC84" d="M63.328,291.238l-0.471,0.635l2.754,29.148c6.311,65.049,67.873,112.305,137.501,105.551
			c69.627-6.754,120.959-64.963,114.65-130.014l-2.516-25.912h-0.002C200.63,251.279,63.328,291.238,63.328,291.238z"/>
	</g>
	<g>
		<path fill="#323333" d="M189.877,433.451c-32.597,0-63.837-11.271-87.967-31.74c-24.409-20.707-39.505-49.146-42.507-80.086
			L48.96,213.981c-3.222-33.2,7.566-65.729,30.377-91.597c22.704-25.745,54.623-41.808,89.878-45.228
			c4.595-0.446,9.25-0.672,13.837-0.672c32.597,0,63.837,11.271,87.966,31.741c24.41,20.707,39.506,49.148,42.506,80.087
			l10.443,107.642c6.633,68.369-47.313,129.748-120.256,136.826C199.119,433.227,194.464,433.451,189.877,433.451z M183.055,88.959
			c-4.188,0-8.438,0.207-12.633,0.613c-32.098,3.114-61.122,17.697-81.728,41.063c-20.5,23.247-30.201,52.418-27.317,82.142
			l10.443,107.641c5.562,57.328,56.315,100.563,118.058,100.563c4.187,0,8.437-0.207,12.634-0.613
			c66.094-6.412,115.012-61.682,109.043-123.205l-10.441-107.643C295.55,132.19,244.796,88.959,183.055,88.959z"/>
	</g>
	<g>
		<g>
			<path fill="#EDD36C" d="M297.62,97.01c3.488-7.249,11.252-8.543,18.502-5.055c7.248,3.488,11.212,10.428,7.724,17.676
				c-3.488,7.248-11.321,8.348-18.569,4.859C298.027,111.002,294.131,104.258,297.62,97.01z M381.386,51.784
				c-6.405,13.311-20.291,16.529-34.186,19.095c-8.677,1.505-10.536,4.019-14.341,11.926c-1.522,3.163-5.919,6.566-13.563,2.887
				c-6.457-3.108-9.533-7.51-6.616-13.572c6.216-12.916,14.132-17.222,26.807-18.264c8.223-1.236,16.623-3.849,20.428-11.756
				c3.425-7.117,2.676-13.32-8.525-18.711c-8.83-4.249-13.036-1.242-15.969-0.543c-6.453,1.602-13.427-1.105-15.916-5.713
				c-2.829-5.255-1.063-9.6,3.096-11.494c7.535-3.516,20.141-4.753,36.482,3.112C383.333,20.421,388.045,37.946,381.386,51.784z"/>
			<path fill="#EDD36C" d="M313.066,117.901c-2.723,0-5.642-0.712-8.44-2.059c-3.955-1.903-6.994-4.757-8.559-8.036
				c-1.728-3.625-1.658-7.583,0.201-11.446c2.373-4.931,6.843-7.759,12.265-7.759c2.667,0,5.516,0.692,8.239,2.003
				c8.555,4.117,12.02,12.209,8.425,19.678C322.833,115.195,318.524,117.901,313.066,117.901z M308.533,91.6
				c-4.285,0-7.681,2.152-9.562,6.06c-1.452,3.017-1.52,6.079-0.196,8.854c1.271,2.664,3.811,5.017,7.151,6.625
				c2.396,1.153,4.864,1.762,7.14,1.762c4.242,0,7.59-2.103,9.428-5.92c3.318-6.896-1.136-12.841-7.022-15.674
				C313.151,92.19,310.751,91.6,308.533,91.6z M325.466,88.79c-2.118,0-4.413-0.587-6.82-1.746
				c-9.939-4.785-9.466-11.11-7.317-15.574c6.052-12.575,13.901-17.935,27.984-19.104c7.039-1.063,15.571-3.27,19.25-10.916
				c2.626-5.458,3.496-11.26-7.824-16.709c-2.908-1.399-5.485-2.08-7.877-2.08c-2.193,0-3.837,0.573-5.286,1.079
				c-0.63,0.219-1.224,0.426-1.808,0.565c-1.343,0.333-2.753,0.504-4.178,0.504c-5.768,0-11.155-2.798-13.405-6.963
				c-1.585-2.944-1.972-5.838-1.119-8.37c0.76-2.257,2.504-4.105,4.912-5.202c4.028-1.879,8.884-2.876,14.029-2.876
				c7.469,0,15.451,2.019,23.726,6.001c11.576,5.57,19.688,12.985,23.462,21.444c3.381,7.576,3.218,15.954-0.457,23.591
				c-6.54,13.59-20.413,17.177-35.265,19.919c-7.897,1.37-9.457,3.195-13.262,11.102C333.609,84.707,331.199,88.79,325.466,88.79z
				 M342.862,19.662c2.853,0,5.854,0.777,9.178,2.376c10.633,5.117,13.564,11.699,9.227,20.713
				c-4.297,8.931-13.777,11.419-21.557,12.589c-0.033,0.005-0.066,0.009-0.1,0.012c-13.051,1.073-19.983,5.794-25.578,17.419
				c-1.463,3.04-2.441,7.547,5.915,11.57c1.999,0.961,3.855,1.449,5.52,1.449c3.982,0,5.632-2.783,6.042-3.635
				c3.919-8.144,6.121-11.138,15.437-12.754c14.584-2.693,27.152-5.928,33.09-18.267c3.334-6.928,3.479-14.213,0.421-21.068
				c-3.48-7.801-11.096-14.705-22.023-19.963c-7.865-3.785-15.41-5.705-22.425-5.705c-4.71,0-9.127,0.899-12.773,2.601
				c-1.68,0.766-2.826,1.952-3.325,3.435c-0.581,1.726-0.264,3.796,0.916,5.989c1.714,3.171,6.142,5.387,10.766,5.387
				c1.182,0,2.349-0.141,3.469-0.419c0.449-0.107,0.949-0.281,1.528-0.483C338.095,20.381,340.16,19.662,342.862,19.662z"/>
		</g>
	</g>
	
		<ellipse transform="matrix(0.9977 -0.0673 0.0673 0.9977 -14.4099 13.7074)" fill="none" stroke="#323333" stroke-width="10" stroke-linecap="round" stroke-linejoin="round" stroke-miterlimit="10" cx="196.221" cy="220.703" rx="9.812" ry="12.248"/>
	<path fill="none" stroke="#323333" stroke-width="8" stroke-linecap="round" stroke-linejoin="round" stroke-miterlimit="10" d="
		M88.221,239.566c0,0-5.271,16.979-0.014,19.976c5.257,2.999,10.951-1.149,10.017-7.329"/>
</g>
</svg>
